<mxfile host="www.draw.io" modified="2020-01-11T15:43:31.351Z" agent="Mozilla/5.0 (Macintosh; Intel Mac OS X 10_15_2) AppleWebKit/605.1.15 (KHTML, like Gecko) Version/13.0.4 Safari/605.1.15" etag="3vUYz-5nTnlI_fWCCrJw" version="12.5.1" type="github">
  <diagram id="C5RBs43oDa-KdzZeNtuy" name="Page-1">
    <mxGraphModel dx="2066" dy="1250" grid="1" gridSize="10" guides="1" tooltips="1" connect="1" arrows="1" fold="1" page="1" pageScale="1" pageWidth="1169" pageHeight="827" math="0" shadow="0">
      <root>
        <mxCell id="WIyWlLk6GJQsqaUBKTNV-0"/>
        <mxCell id="WIyWlLk6GJQsqaUBKTNV-1" parent="WIyWlLk6GJQsqaUBKTNV-0"/>
        <mxCell id="5Jlnsfs4VGk-h_8qWeXb-126" value="" style="rounded=0;whiteSpace=wrap;html=1;fontFamily=Times New Roman;fontSize=12;fillColor=#f5f5f5;strokeColor=#666666;fontColor=#333333;" parent="WIyWlLk6GJQsqaUBKTNV-1" vertex="1">
          <mxGeometry x="40" y="1240" width="280" height="120" as="geometry"/>
        </mxCell>
        <mxCell id="5Jlnsfs4VGk-h_8qWeXb-111" value="" style="rounded=0;whiteSpace=wrap;html=1;fontFamily=Times New Roman;fontSize=12;fillColor=#f5f5f5;strokeColor=#666666;fontColor=#333333;" parent="WIyWlLk6GJQsqaUBKTNV-1" vertex="1">
          <mxGeometry x="40" y="880" width="280" height="310" as="geometry"/>
        </mxCell>
        <mxCell id="5Jlnsfs4VGk-h_8qWeXb-143" value="" style="rounded=0;whiteSpace=wrap;html=1;fontFamily=Times New Roman;fontSize=12;fillColor=#ffe6cc;strokeColor=#d79b00;" parent="WIyWlLk6GJQsqaUBKTNV-1" vertex="1">
          <mxGeometry x="40" y="1020" width="880" height="80" as="geometry"/>
        </mxCell>
        <mxCell id="5Jlnsfs4VGk-h_8qWeXb-145" value="" style="rounded=0;whiteSpace=wrap;html=1;fontFamily=Times New Roman;fontSize=12;fillColor=#ffe6cc;strokeColor=#d79b00;" parent="WIyWlLk6GJQsqaUBKTNV-1" vertex="1">
          <mxGeometry x="40" y="1260" width="1080" height="80" as="geometry"/>
        </mxCell>
        <mxCell id="5Jlnsfs4VGk-h_8qWeXb-146" value="" style="rounded=0;whiteSpace=wrap;html=1;fontFamily=Times New Roman;fontSize=12;fillColor=#ffe6cc;strokeColor=#d79b00;" parent="WIyWlLk6GJQsqaUBKTNV-1" vertex="1">
          <mxGeometry x="40" y="1110" width="1120" height="70" as="geometry"/>
        </mxCell>
        <mxCell id="5Jlnsfs4VGk-h_8qWeXb-103" value="" style="rounded=0;whiteSpace=wrap;html=1;fontFamily=Times New Roman;fontSize=12;fillColor=#f5f5f5;strokeColor=#666666;fontColor=#333333;" parent="WIyWlLk6GJQsqaUBKTNV-1" vertex="1">
          <mxGeometry x="480" y="160" width="540" height="660" as="geometry"/>
        </mxCell>
        <mxCell id="5Jlnsfs4VGk-h_8qWeXb-106" value="" style="rounded=0;whiteSpace=wrap;html=1;fontFamily=Times New Roman;fontSize=12;fillColor=#ffe6cc;strokeColor=#d79b00;" parent="WIyWlLk6GJQsqaUBKTNV-1" vertex="1">
          <mxGeometry x="675.3499999999999" y="500.1" width="194.65" height="189.9" as="geometry"/>
        </mxCell>
        <mxCell id="5Jlnsfs4VGk-h_8qWeXb-105" value="" style="rounded=0;whiteSpace=wrap;html=1;fontFamily=Times New Roman;fontSize=12;fillColor=#ffe6cc;strokeColor=#d79b00;" parent="WIyWlLk6GJQsqaUBKTNV-1" vertex="1">
          <mxGeometry x="480" y="320.1" width="180" height="459.9" as="geometry"/>
        </mxCell>
        <mxCell id="5Jlnsfs4VGk-h_8qWeXb-104" value="" style="rounded=0;whiteSpace=wrap;html=1;fontFamily=Times New Roman;fontSize=12;fillColor=#ffe6cc;strokeColor=#d79b00;" parent="WIyWlLk6GJQsqaUBKTNV-1" vertex="1">
          <mxGeometry x="890" y="450" width="130" height="270" as="geometry"/>
        </mxCell>
        <mxCell id="5Jlnsfs4VGk-h_8qWeXb-101" value="" style="rounded=0;whiteSpace=wrap;html=1;fontFamily=Times New Roman;fontSize=12;fillColor=#f5f5f5;strokeColor=#666666;fontColor=#333333;" parent="WIyWlLk6GJQsqaUBKTNV-1" vertex="1">
          <mxGeometry x="40" y="320" width="350" height="450" as="geometry"/>
        </mxCell>
        <mxCell id="5Jlnsfs4VGk-h_8qWeXb-102" value="" style="rounded=0;whiteSpace=wrap;html=1;fontFamily=Times New Roman;fontSize=12;fillColor=#ffe6cc;strokeColor=#d79b00;" parent="WIyWlLk6GJQsqaUBKTNV-1" vertex="1">
          <mxGeometry x="120" y="660.1" width="260" height="89.9" as="geometry"/>
        </mxCell>
        <mxCell id="5Jlnsfs4VGk-h_8qWeXb-100" value="" style="rounded=0;whiteSpace=wrap;html=1;fontFamily=Times New Roman;fontSize=12;fillColor=#f5f5f5;strokeColor=#666666;fontColor=#333333;" parent="WIyWlLk6GJQsqaUBKTNV-1" vertex="1">
          <mxGeometry x="40" y="160" width="280" height="150" as="geometry"/>
        </mxCell>
        <mxCell id="luJg4qjhhUZD8f3jOs_--4" value="" style="rounded=0;whiteSpace=wrap;html=1;fontFamily=Times New Roman;fontSize=12;fillColor=#f5f5f5;strokeColor=#666666;fontColor=#333333;" parent="WIyWlLk6GJQsqaUBKTNV-1" vertex="1">
          <mxGeometry x="760" y="25" width="400" height="90" as="geometry"/>
        </mxCell>
        <mxCell id="luJg4qjhhUZD8f3jOs_--6" style="edgeStyle=orthogonalEdgeStyle;rounded=0;orthogonalLoop=1;jettySize=auto;html=1;exitX=0.5;exitY=1;exitDx=0;exitDy=0;entryX=0.5;entryY=0;entryDx=0;entryDy=0;fontFamily=Times New Roman;fontSize=12;fillColor=#f8cecc;strokeColor=#b85450;" parent="WIyWlLk6GJQsqaUBKTNV-1" source="luJg4qjhhUZD8f3jOs_--7" target="luJg4qjhhUZD8f3jOs_--12" edge="1">
          <mxGeometry relative="1" as="geometry"/>
        </mxCell>
        <mxCell id="luJg4qjhhUZD8f3jOs_--7" value="&lt;b&gt;START&lt;/b&gt;" style="rounded=1;whiteSpace=wrap;html=1;fontFamily=Times New Roman;fontSize=12;fillColor=#d5e8d4;strokeColor=#82b366;" parent="WIyWlLk6GJQsqaUBKTNV-1" vertex="1">
          <mxGeometry x="120.17" y="40" width="120" height="40" as="geometry"/>
        </mxCell>
        <mxCell id="luJg4qjhhUZD8f3jOs_--8" value="&lt;b style=&quot;font-size: 14px&quot;&gt;&lt;font style=&quot;font-size: 14px&quot;&gt;(0.0) Read me&amp;nbsp;&lt;/font&gt;&lt;/b&gt;" style="text;html=1;align=left;verticalAlign=middle;resizable=0;points=[];autosize=1;fontSize=14;fontFamily=Times New Roman;" parent="WIyWlLk6GJQsqaUBKTNV-1" vertex="1">
          <mxGeometry x="40" y="160" width="130" height="20" as="geometry"/>
        </mxCell>
        <mxCell id="5Jlnsfs4VGk-h_8qWeXb-8" value="" style="edgeStyle=orthogonalEdgeStyle;rounded=0;orthogonalLoop=1;jettySize=auto;html=1;" parent="WIyWlLk6GJQsqaUBKTNV-1" source="luJg4qjhhUZD8f3jOs_--12" target="5Jlnsfs4VGk-h_8qWeXb-7" edge="1">
          <mxGeometry relative="1" as="geometry"/>
        </mxCell>
        <mxCell id="luJg4qjhhUZD8f3jOs_--12" value="&lt;b&gt;0.3&lt;/b&gt;&amp;nbsp;&lt;br style=&quot;font-size: 12px&quot;&gt;load packages" style="rounded=0;whiteSpace=wrap;html=1;fontFamily=Times New Roman;fontSize=12;" parent="WIyWlLk6GJQsqaUBKTNV-1" vertex="1">
          <mxGeometry x="120.35" y="180" width="120" height="40" as="geometry"/>
        </mxCell>
        <mxCell id="5Jlnsfs4VGk-h_8qWeXb-54" style="edgeStyle=orthogonalEdgeStyle;rounded=0;orthogonalLoop=1;jettySize=auto;html=1;exitX=1;exitY=0.5;exitDx=0;exitDy=0;entryX=0;entryY=0;entryDx=0;entryDy=0;fontFamily=Times New Roman;fontSize=10;fillColor=#f8cecc;strokeColor=#b85450;dashed=1;strokeWidth=2;" parent="WIyWlLk6GJQsqaUBKTNV-1" source="5Jlnsfs4VGk-h_8qWeXb-7" target="5Jlnsfs4VGk-h_8qWeXb-39" edge="1">
          <mxGeometry relative="1" as="geometry">
            <Array as="points">
              <mxPoint x="680" y="280"/>
              <mxPoint x="680" y="360"/>
              <mxPoint x="795" y="360"/>
              <mxPoint x="795" y="380"/>
            </Array>
          </mxGeometry>
        </mxCell>
        <mxCell id="5Jlnsfs4VGk-h_8qWeXb-7" value="&lt;b&gt;0.3&lt;/b&gt;&amp;nbsp;&lt;br style=&quot;font-size: 12px&quot;&gt;run local files T/F" style="rounded=0;whiteSpace=wrap;html=1;fontFamily=Times New Roman;fontSize=12;" parent="WIyWlLk6GJQsqaUBKTNV-1" vertex="1">
          <mxGeometry x="120.16999999999999" y="260" width="120" height="40" as="geometry"/>
        </mxCell>
        <mxCell id="luJg4qjhhUZD8f3jOs_--52" value="Output&lt;br&gt;in R" style="shape=parallelogram;perimeter=parallelogramPerimeter;whiteSpace=wrap;html=1;fontFamily=Times New Roman;fontSize=12;fillColor=#e1d5e7;strokeColor=#9673a6;" parent="WIyWlLk6GJQsqaUBKTNV-1" vertex="1">
          <mxGeometry x="840" y="35" width="70" height="30" as="geometry"/>
        </mxCell>
        <mxCell id="luJg4qjhhUZD8f3jOs_--53" value="Input" style="shape=parallelogram;perimeter=parallelogramPerimeter;whiteSpace=wrap;html=1;fontFamily=Times New Roman;fontSize=12;fillColor=#fff2cc;strokeColor=#d6b656;" parent="WIyWlLk6GJQsqaUBKTNV-1" vertex="1">
          <mxGeometry x="920" y="35" width="70" height="30" as="geometry"/>
        </mxCell>
        <mxCell id="luJg4qjhhUZD8f3jOs_--54" value="Process" style="rounded=0;whiteSpace=wrap;html=1;fontFamily=Times New Roman;fontSize=12;" parent="WIyWlLk6GJQsqaUBKTNV-1" vertex="1">
          <mxGeometry x="770" y="75" width="140" height="30" as="geometry"/>
        </mxCell>
        <mxCell id="luJg4qjhhUZD8f3jOs_--55" value="Sub-process group" style="rounded=0;whiteSpace=wrap;html=1;fontFamily=Times New Roman;fontSize=12;fillColor=#ffe6cc;strokeColor=#d79b00;" parent="WIyWlLk6GJQsqaUBKTNV-1" vertex="1">
          <mxGeometry x="1000" y="75" width="70" height="30" as="geometry"/>
        </mxCell>
        <mxCell id="luJg4qjhhUZD8f3jOs_--56" value="Report" style="shape=document;whiteSpace=wrap;html=1;boundedLbl=1;fontFamily=Times New Roman;fontSize=12;align=center;" parent="WIyWlLk6GJQsqaUBKTNV-1" vertex="1">
          <mxGeometry x="1080" y="75" width="70" height="30" as="geometry"/>
        </mxCell>
        <mxCell id="luJg4qjhhUZD8f3jOs_--57" value="&lt;span style=&quot;font-weight: normal&quot;&gt;START&lt;/span&gt;" style="rounded=1;whiteSpace=wrap;html=1;fontFamily=Times New Roman;fontSize=12;fillColor=#d5e8d4;strokeColor=#82b366;fontStyle=1" parent="WIyWlLk6GJQsqaUBKTNV-1" vertex="1">
          <mxGeometry x="1000" y="35" width="70" height="30" as="geometry"/>
        </mxCell>
        <mxCell id="luJg4qjhhUZD8f3jOs_--58" value="&lt;span style=&quot;font-weight: normal&quot;&gt;END&lt;/span&gt;" style="rounded=1;whiteSpace=wrap;html=1;fontFamily=Times New Roman;fontSize=12;fillColor=#f8cecc;strokeColor=#b85450;fontStyle=1" parent="WIyWlLk6GJQsqaUBKTNV-1" vertex="1">
          <mxGeometry x="1080" y="35" width="70" height="30" as="geometry"/>
        </mxCell>
        <mxCell id="luJg4qjhhUZD8f3jOs_--66" value="&lt;b style=&quot;font-size: 14px&quot;&gt;&lt;font style=&quot;font-size: 14px&quot;&gt;Legend&lt;/font&gt;&lt;/b&gt;" style="text;html=1;align=left;verticalAlign=middle;resizable=0;points=[];autosize=1;fontSize=14;fontFamily=Times New Roman;" parent="WIyWlLk6GJQsqaUBKTNV-1" vertex="1">
          <mxGeometry x="760" y="5" width="70" height="20" as="geometry"/>
        </mxCell>
        <mxCell id="luJg4qjhhUZD8f3jOs_--67" value="Process group" style="rounded=0;whiteSpace=wrap;html=1;fontFamily=Times New Roman;fontSize=12;fillColor=#f5f5f5;strokeColor=#666666;fontColor=#333333;" parent="WIyWlLk6GJQsqaUBKTNV-1" vertex="1">
          <mxGeometry x="920" y="75" width="70" height="30" as="geometry"/>
        </mxCell>
        <mxCell id="5Jlnsfs4VGk-h_8qWeXb-11" style="edgeStyle=orthogonalEdgeStyle;rounded=0;orthogonalLoop=1;jettySize=auto;html=1;exitX=0.5;exitY=1;exitDx=0;exitDy=0;" parent="WIyWlLk6GJQsqaUBKTNV-1" source="5Jlnsfs4VGk-h_8qWeXb-1" target="5Jlnsfs4VGk-h_8qWeXb-10" edge="1">
          <mxGeometry relative="1" as="geometry"/>
        </mxCell>
        <mxCell id="5Jlnsfs4VGk-h_8qWeXb-1" value="&lt;b&gt;Lowy GDI&lt;br&gt;&amp;nbsp;data&lt;/b&gt;" style="shape=parallelogram;perimeter=parallelogramPerimeter;whiteSpace=wrap;html=1;fontFamily=Times New Roman;fontSize=12;fillColor=#fff2cc;strokeColor=#d6b656;" parent="WIyWlLk6GJQsqaUBKTNV-1" vertex="1">
          <mxGeometry x="130.35" y="350" width="100" height="30" as="geometry"/>
        </mxCell>
        <mxCell id="5Jlnsfs4VGk-h_8qWeXb-9" value="&lt;b style=&quot;font-size: 14px&quot;&gt;&lt;font style=&quot;font-size: 14px&quot;&gt;(1.0) Extract Lowy Data&lt;br&gt;&lt;/font&gt;&lt;/b&gt;" style="text;html=1;align=left;verticalAlign=middle;resizable=0;points=[];autosize=1;fontSize=14;fontFamily=Times New Roman;" parent="WIyWlLk6GJQsqaUBKTNV-1" vertex="1">
          <mxGeometry x="40" y="320" width="200" height="20" as="geometry"/>
        </mxCell>
        <mxCell id="5Jlnsfs4VGk-h_8qWeXb-13" value="" style="edgeStyle=orthogonalEdgeStyle;rounded=0;orthogonalLoop=1;jettySize=auto;html=1;" parent="WIyWlLk6GJQsqaUBKTNV-1" source="5Jlnsfs4VGk-h_8qWeXb-10" target="5Jlnsfs4VGk-h_8qWeXb-12" edge="1">
          <mxGeometry relative="1" as="geometry"/>
        </mxCell>
        <mxCell id="5Jlnsfs4VGk-h_8qWeXb-10" value="&lt;b&gt;1.1&lt;/b&gt;&amp;nbsp;&lt;br style=&quot;font-size: 12px&quot;&gt;load .csv file" style="rounded=0;whiteSpace=wrap;html=1;fontFamily=Times New Roman;fontSize=12;" parent="WIyWlLk6GJQsqaUBKTNV-1" vertex="1">
          <mxGeometry x="120.35" y="420" width="120" height="40" as="geometry"/>
        </mxCell>
        <mxCell id="5Jlnsfs4VGk-h_8qWeXb-17" style="edgeStyle=orthogonalEdgeStyle;rounded=0;orthogonalLoop=1;jettySize=auto;html=1;exitX=0.5;exitY=1;exitDx=0;exitDy=0;" parent="WIyWlLk6GJQsqaUBKTNV-1" source="5Jlnsfs4VGk-h_8qWeXb-12" target="5Jlnsfs4VGk-h_8qWeXb-15" edge="1">
          <mxGeometry relative="1" as="geometry"/>
        </mxCell>
        <mxCell id="5Jlnsfs4VGk-h_8qWeXb-18" style="edgeStyle=orthogonalEdgeStyle;rounded=0;orthogonalLoop=1;jettySize=auto;html=1;exitX=0.5;exitY=1;exitDx=0;exitDy=0;entryX=0.5;entryY=0;entryDx=0;entryDy=0;" parent="WIyWlLk6GJQsqaUBKTNV-1" source="5Jlnsfs4VGk-h_8qWeXb-12" target="5Jlnsfs4VGk-h_8qWeXb-16" edge="1">
          <mxGeometry relative="1" as="geometry"/>
        </mxCell>
        <mxCell id="5Jlnsfs4VGk-h_8qWeXb-19" style="edgeStyle=orthogonalEdgeStyle;rounded=0;orthogonalLoop=1;jettySize=auto;html=1;exitX=0.5;exitY=1;exitDx=0;exitDy=0;" parent="WIyWlLk6GJQsqaUBKTNV-1" source="5Jlnsfs4VGk-h_8qWeXb-12" target="5Jlnsfs4VGk-h_8qWeXb-14" edge="1">
          <mxGeometry relative="1" as="geometry"/>
        </mxCell>
        <mxCell id="5Jlnsfs4VGk-h_8qWeXb-12" value="&lt;b&gt;1.2&lt;/b&gt;&lt;br style=&quot;font-size: 12px&quot;&gt;rename columns and split data set" style="rounded=0;whiteSpace=wrap;html=1;fontFamily=Times New Roman;fontSize=12;" parent="WIyWlLk6GJQsqaUBKTNV-1" vertex="1">
          <mxGeometry x="120.35" y="500" width="120" height="40" as="geometry"/>
        </mxCell>
        <mxCell id="5Jlnsfs4VGk-h_8qWeXb-14" value="&lt;b&gt;Meta data&lt;/b&gt;" style="shape=parallelogram;perimeter=parallelogramPerimeter;whiteSpace=wrap;html=1;fontFamily=Times New Roman;fontSize=12;fillColor=#dae8fc;strokeColor=#6c8ebf;" parent="WIyWlLk6GJQsqaUBKTNV-1" vertex="1">
          <mxGeometry x="220" y="580" width="100" height="30" as="geometry"/>
        </mxCell>
        <mxCell id="5Jlnsfs4VGk-h_8qWeXb-15" value="&lt;b&gt;Rank data&lt;/b&gt;" style="shape=parallelogram;perimeter=parallelogramPerimeter;whiteSpace=wrap;html=1;fontFamily=Times New Roman;fontSize=12;fillColor=#dae8fc;strokeColor=#6c8ebf;" parent="WIyWlLk6GJQsqaUBKTNV-1" vertex="1">
          <mxGeometry x="40.00000000000002" y="580" width="100" height="30" as="geometry"/>
        </mxCell>
        <mxCell id="5Jlnsfs4VGk-h_8qWeXb-22" style="rounded=0;orthogonalLoop=1;jettySize=auto;html=1;exitX=0.5;exitY=1;exitDx=0;exitDy=0;entryX=0.5;entryY=0;entryDx=0;entryDy=0;" parent="WIyWlLk6GJQsqaUBKTNV-1" source="5Jlnsfs4VGk-h_8qWeXb-16" target="5Jlnsfs4VGk-h_8qWeXb-20" edge="1">
          <mxGeometry relative="1" as="geometry"/>
        </mxCell>
        <mxCell id="5Jlnsfs4VGk-h_8qWeXb-61" style="edgeStyle=orthogonalEdgeStyle;rounded=0;orthogonalLoop=1;jettySize=auto;html=1;exitX=0.5;exitY=1;exitDx=0;exitDy=0;entryX=0;entryY=0.5;entryDx=0;entryDy=0;fontFamily=Times New Roman;fontSize=10;fillColor=#dae8fc;strokeColor=#6c8ebf;dashed=1;strokeWidth=2;" parent="WIyWlLk6GJQsqaUBKTNV-1" source="5Jlnsfs4VGk-h_8qWeXb-16" target="5Jlnsfs4VGk-h_8qWeXb-28" edge="1">
          <mxGeometry relative="1" as="geometry">
            <Array as="points">
              <mxPoint x="180" y="640"/>
              <mxPoint x="430" y="640"/>
              <mxPoint x="430" y="205"/>
            </Array>
          </mxGeometry>
        </mxCell>
        <mxCell id="5Jlnsfs4VGk-h_8qWeXb-16" value="&lt;b&gt;Diplomatic &lt;br&gt;post data&lt;/b&gt;" style="shape=parallelogram;perimeter=parallelogramPerimeter;whiteSpace=wrap;html=1;fontFamily=Times New Roman;fontSize=12;fillColor=#dae8fc;strokeColor=#6c8ebf;" parent="WIyWlLk6GJQsqaUBKTNV-1" vertex="1">
          <mxGeometry x="130.17" y="580" width="100" height="30" as="geometry"/>
        </mxCell>
        <mxCell id="5Jlnsfs4VGk-h_8qWeXb-23" style="edgeStyle=orthogonalEdgeStyle;rounded=0;orthogonalLoop=1;jettySize=auto;html=1;exitX=1;exitY=0.5;exitDx=0;exitDy=0;entryX=0;entryY=0.5;entryDx=0;entryDy=0;" parent="WIyWlLk6GJQsqaUBKTNV-1" source="5Jlnsfs4VGk-h_8qWeXb-20" edge="1">
          <mxGeometry relative="1" as="geometry">
            <mxPoint x="289.94444444444446" y="679.9444444444443" as="targetPoint"/>
          </mxGeometry>
        </mxCell>
        <mxCell id="5Jlnsfs4VGk-h_8qWeXb-25" style="edgeStyle=orthogonalEdgeStyle;rounded=0;orthogonalLoop=1;jettySize=auto;html=1;exitX=1;exitY=0.5;exitDx=0;exitDy=0;entryX=0.1;entryY=0.333;entryDx=0;entryDy=0;entryPerimeter=0;" parent="WIyWlLk6GJQsqaUBKTNV-1" source="5Jlnsfs4VGk-h_8qWeXb-20" edge="1">
          <mxGeometry relative="1" as="geometry">
            <mxPoint x="289.94444444444446" y="719.9444444444443" as="targetPoint"/>
            <Array as="points">
              <mxPoint x="260" y="680"/>
              <mxPoint x="260" y="720"/>
            </Array>
          </mxGeometry>
        </mxCell>
        <mxCell id="5Jlnsfs4VGk-h_8qWeXb-20" value="&lt;b&gt;1.3&lt;/b&gt;&lt;br style=&quot;font-size: 12px&quot;&gt;Descriptive statistics" style="rounded=0;whiteSpace=wrap;html=1;fontFamily=Times New Roman;fontSize=12;" parent="WIyWlLk6GJQsqaUBKTNV-1" vertex="1">
          <mxGeometry x="120" y="660" width="120" height="40" as="geometry"/>
        </mxCell>
        <mxCell id="5Jlnsfs4VGk-h_8qWeXb-26" value="&lt;b style=&quot;font-size: 14px&quot;&gt;&lt;font style=&quot;font-size: 14px&quot;&gt;(2.0) Transform data&lt;br&gt;&lt;/font&gt;&lt;/b&gt;" style="text;html=1;align=left;verticalAlign=middle;resizable=0;points=[];autosize=1;fontSize=14;fontFamily=Times New Roman;" parent="WIyWlLk6GJQsqaUBKTNV-1" vertex="1">
          <mxGeometry x="480" y="160" width="180" height="20" as="geometry"/>
        </mxCell>
        <mxCell id="5Jlnsfs4VGk-h_8qWeXb-31" style="edgeStyle=orthogonalEdgeStyle;rounded=0;orthogonalLoop=1;jettySize=auto;html=1;exitX=0.5;exitY=1;exitDx=0;exitDy=0;entryX=0.5;entryY=0;entryDx=0;entryDy=0;" parent="WIyWlLk6GJQsqaUBKTNV-1" source="5Jlnsfs4VGk-h_8qWeXb-27" target="5Jlnsfs4VGk-h_8qWeXb-30" edge="1">
          <mxGeometry relative="1" as="geometry"/>
        </mxCell>
        <mxCell id="5Jlnsfs4VGk-h_8qWeXb-27" value="&lt;b&gt;2.1&lt;/b&gt;&lt;br style=&quot;font-size: 12px&quot;&gt;Re-load data" style="rounded=0;whiteSpace=wrap;html=1;fontFamily=Times New Roman;fontSize=12;" parent="WIyWlLk6GJQsqaUBKTNV-1" vertex="1">
          <mxGeometry x="775" y="240" width="120" height="40" as="geometry"/>
        </mxCell>
        <mxCell id="5Jlnsfs4VGk-h_8qWeXb-29" style="edgeStyle=orthogonalEdgeStyle;rounded=0;orthogonalLoop=1;jettySize=auto;html=1;exitX=0.5;exitY=1;exitDx=0;exitDy=0;entryX=0.5;entryY=0;entryDx=0;entryDy=0;" parent="WIyWlLk6GJQsqaUBKTNV-1" source="5Jlnsfs4VGk-h_8qWeXb-28" target="5Jlnsfs4VGk-h_8qWeXb-27" edge="1">
          <mxGeometry relative="1" as="geometry"/>
        </mxCell>
        <mxCell id="5Jlnsfs4VGk-h_8qWeXb-28" value="&lt;b&gt;Diplomatic &lt;br&gt;post data&lt;/b&gt;" style="shape=parallelogram;perimeter=parallelogramPerimeter;whiteSpace=wrap;html=1;fontFamily=Times New Roman;fontSize=12;fillColor=#fff2cc;strokeColor=#d6b656;" parent="WIyWlLk6GJQsqaUBKTNV-1" vertex="1">
          <mxGeometry x="785.3499999999999" y="190" width="100" height="30" as="geometry"/>
        </mxCell>
        <mxCell id="5Jlnsfs4VGk-h_8qWeXb-33" style="edgeStyle=orthogonalEdgeStyle;rounded=0;orthogonalLoop=1;jettySize=auto;html=1;exitX=1;exitY=0.5;exitDx=0;exitDy=0;entryX=0;entryY=0.5;entryDx=0;entryDy=0;fontSize=12;" parent="WIyWlLk6GJQsqaUBKTNV-1" source="5Jlnsfs4VGk-h_8qWeXb-30" target="5Jlnsfs4VGk-h_8qWeXb-32" edge="1">
          <mxGeometry relative="1" as="geometry"/>
        </mxCell>
        <mxCell id="5Jlnsfs4VGk-h_8qWeXb-40" style="edgeStyle=orthogonalEdgeStyle;rounded=0;orthogonalLoop=1;jettySize=auto;html=1;exitX=0.5;exitY=1;exitDx=0;exitDy=0;entryX=0.5;entryY=0;entryDx=0;entryDy=0;fontFamily=Times New Roman;fontSize=10;" parent="WIyWlLk6GJQsqaUBKTNV-1" source="5Jlnsfs4VGk-h_8qWeXb-30" target="5Jlnsfs4VGk-h_8qWeXb-39" edge="1">
          <mxGeometry relative="1" as="geometry"/>
        </mxCell>
        <mxCell id="5Jlnsfs4VGk-h_8qWeXb-30" value="&lt;b style=&quot;font-size: 12px&quot;&gt;2.2&lt;/b&gt;&lt;br style=&quot;font-size: 12px&quot;&gt;generate iso codes with countrycode package" style="rounded=0;whiteSpace=wrap;html=1;fontFamily=Times New Roman;fontSize=12;" parent="WIyWlLk6GJQsqaUBKTNV-1" vertex="1">
          <mxGeometry x="775.3499999999999" y="300" width="120" height="40" as="geometry"/>
        </mxCell>
        <mxCell id="5Jlnsfs4VGk-h_8qWeXb-32" value="&lt;b&gt;Diplo. data +&lt;br&gt;iso codes&lt;br&gt;&lt;/b&gt;" style="shape=parallelogram;perimeter=parallelogramPerimeter;whiteSpace=wrap;html=1;fontFamily=Times New Roman;fontSize=12;fillColor=#e1d5e7;strokeColor=#9673a6;" parent="WIyWlLk6GJQsqaUBKTNV-1" vertex="1">
          <mxGeometry x="915" y="305" width="100" height="30" as="geometry"/>
        </mxCell>
        <mxCell id="5Jlnsfs4VGk-h_8qWeXb-46" value="" style="edgeStyle=orthogonalEdgeStyle;rounded=0;orthogonalLoop=1;jettySize=auto;html=1;fontFamily=Times New Roman;fontSize=10;" parent="WIyWlLk6GJQsqaUBKTNV-1" source="5Jlnsfs4VGk-h_8qWeXb-34" target="5Jlnsfs4VGk-h_8qWeXb-45" edge="1">
          <mxGeometry relative="1" as="geometry"/>
        </mxCell>
        <mxCell id="5Jlnsfs4VGk-h_8qWeXb-34" value="&lt;b style=&quot;font-size: 12px&quot;&gt;2.3.1&lt;/b&gt;&lt;br style=&quot;font-size: 12px&quot;&gt;Load local geocoded .csv files" style="rounded=0;whiteSpace=wrap;html=1;fontFamily=Times New Roman;fontSize=12;" parent="WIyWlLk6GJQsqaUBKTNV-1" vertex="1">
          <mxGeometry x="895" y="590" width="120" height="40" as="geometry"/>
        </mxCell>
        <mxCell id="5Jlnsfs4VGk-h_8qWeXb-48" style="edgeStyle=orthogonalEdgeStyle;rounded=0;orthogonalLoop=1;jettySize=auto;html=1;exitX=0.5;exitY=1;exitDx=0;exitDy=0;entryX=0.5;entryY=0;entryDx=0;entryDy=0;fontFamily=Times New Roman;fontSize=10;" parent="WIyWlLk6GJQsqaUBKTNV-1" source="5Jlnsfs4VGk-h_8qWeXb-45" target="5Jlnsfs4VGk-h_8qWeXb-47" edge="1">
          <mxGeometry relative="1" as="geometry">
            <Array as="points">
              <mxPoint x="955" y="740"/>
              <mxPoint x="855" y="740"/>
            </Array>
          </mxGeometry>
        </mxCell>
        <mxCell id="5Jlnsfs4VGk-h_8qWeXb-45" value="&lt;b style=&quot;font-size: 12px&quot;&gt;2.3.2&lt;/b&gt;&lt;br style=&quot;font-size: 12px&quot;&gt;Join files to master dataframe" style="rounded=0;whiteSpace=wrap;html=1;fontFamily=Times New Roman;fontSize=12;" parent="WIyWlLk6GJQsqaUBKTNV-1" vertex="1">
          <mxGeometry x="895" y="670" width="120" height="40" as="geometry"/>
        </mxCell>
        <mxCell id="5Jlnsfs4VGk-h_8qWeXb-58" style="edgeStyle=orthogonalEdgeStyle;rounded=0;orthogonalLoop=1;jettySize=auto;html=1;exitX=0.5;exitY=1;exitDx=0;exitDy=0;entryX=0.503;entryY=0.113;entryDx=0;entryDy=0;entryPerimeter=0;fontFamily=Times New Roman;fontSize=10;" parent="WIyWlLk6GJQsqaUBKTNV-1" source="5Jlnsfs4VGk-h_8qWeXb-38" target="5Jlnsfs4VGk-h_8qWeXb-51" edge="1">
          <mxGeometry relative="1" as="geometry"/>
        </mxCell>
        <mxCell id="5Jlnsfs4VGk-h_8qWeXb-38" value="&lt;span style=&quot;font-size: 10px;&quot;&gt;distinct city and country geocode queries&lt;/span&gt;" style="shape=parallelogram;perimeter=parallelogramPerimeter;whiteSpace=wrap;html=1;fontFamily=Times New Roman;fontSize=10;fillColor=#e1d5e7;strokeColor=#9673a6;fontStyle=1" parent="WIyWlLk6GJQsqaUBKTNV-1" vertex="1">
          <mxGeometry x="520" y="490.1" width="100" height="35" as="geometry"/>
        </mxCell>
        <mxCell id="5Jlnsfs4VGk-h_8qWeXb-41" value="FALSE" style="edgeStyle=orthogonalEdgeStyle;rounded=0;orthogonalLoop=1;jettySize=auto;html=1;exitX=1;exitY=0.5;exitDx=0;exitDy=0;entryX=0.5;entryY=0;entryDx=0;entryDy=0;fontFamily=Times New Roman;fontSize=10;" parent="WIyWlLk6GJQsqaUBKTNV-1" source="5Jlnsfs4VGk-h_8qWeXb-39" target="5Jlnsfs4VGk-h_8qWeXb-42" edge="1">
          <mxGeometry relative="1" as="geometry">
            <Array as="points">
              <mxPoint x="955" y="400"/>
            </Array>
          </mxGeometry>
        </mxCell>
        <mxCell id="5Jlnsfs4VGk-h_8qWeXb-55" value="TRUE" style="edgeStyle=orthogonalEdgeStyle;rounded=0;orthogonalLoop=1;jettySize=auto;html=1;exitX=0.5;exitY=1;exitDx=0;exitDy=0;entryX=0.5;entryY=0;entryDx=0;entryDy=0;fontFamily=Times New Roman;fontSize=10;" parent="WIyWlLk6GJQsqaUBKTNV-1" target="5Jlnsfs4VGk-h_8qWeXb-49" edge="1">
          <mxGeometry relative="1" as="geometry">
            <mxPoint x="835" y="360" as="sourcePoint"/>
            <Array as="points">
              <mxPoint x="835" y="410"/>
              <mxPoint x="570" y="410"/>
            </Array>
          </mxGeometry>
        </mxCell>
        <mxCell id="5Jlnsfs4VGk-h_8qWeXb-39" value="run local files&lt;br style=&quot;font-size: 10px;&quot;&gt;from 0.3" style="rhombus;whiteSpace=wrap;html=1;fontSize=10;fontFamily=Times New Roman;fontStyle=1" parent="WIyWlLk6GJQsqaUBKTNV-1" vertex="1">
          <mxGeometry x="794.9999999999999" y="360" width="80" height="80" as="geometry"/>
        </mxCell>
        <mxCell id="5Jlnsfs4VGk-h_8qWeXb-110" style="edgeStyle=orthogonalEdgeStyle;rounded=0;orthogonalLoop=1;jettySize=auto;html=1;exitX=0.5;exitY=1;exitDx=0;exitDy=0;strokeWidth=1;fontFamily=Times New Roman;fontSize=10;" parent="WIyWlLk6GJQsqaUBKTNV-1" source="5Jlnsfs4VGk-h_8qWeXb-42" target="5Jlnsfs4VGk-h_8qWeXb-34" edge="1">
          <mxGeometry relative="1" as="geometry"/>
        </mxCell>
        <mxCell id="5Jlnsfs4VGk-h_8qWeXb-42" value="&lt;b style=&quot;font-size: 10px&quot;&gt;&lt;font style=&quot;font-size: 10px&quot;&gt;Distinct &lt;br&gt;geocoded cities&lt;/font&gt;&lt;/b&gt;" style="shape=parallelogram;perimeter=parallelogramPerimeter;whiteSpace=wrap;html=1;fontFamily=Times New Roman;fontSize=10;fillColor=#fff2cc;strokeColor=#d6b656;" parent="WIyWlLk6GJQsqaUBKTNV-1" vertex="1">
          <mxGeometry x="905" y="462" width="100" height="30" as="geometry"/>
        </mxCell>
        <mxCell id="5Jlnsfs4VGk-h_8qWeXb-43" value="&lt;b style=&quot;font-size: 10px;&quot;&gt;&lt;font style=&quot;font-size: 10px;&quot;&gt;Distinct &lt;br style=&quot;font-size: 10px;&quot;&gt;geocoded countries&lt;/font&gt;&lt;/b&gt;" style="shape=parallelogram;perimeter=parallelogramPerimeter;whiteSpace=wrap;html=1;fontFamily=Times New Roman;fontSize=10;fillColor=#fff2cc;strokeColor=#d6b656;" parent="WIyWlLk6GJQsqaUBKTNV-1" vertex="1">
          <mxGeometry x="905" y="502" width="100" height="30" as="geometry"/>
        </mxCell>
        <mxCell id="5Jlnsfs4VGk-h_8qWeXb-44" value="&lt;b style=&quot;font-size: 10px&quot;&gt;&lt;font style=&quot;font-size: 10px&quot;&gt;Distinct &lt;br&gt;geocoded posts&lt;/font&gt;&lt;/b&gt;" style="shape=parallelogram;perimeter=parallelogramPerimeter;whiteSpace=wrap;html=1;fontFamily=Times New Roman;fontSize=10;fillColor=#fff2cc;strokeColor=#d6b656;" parent="WIyWlLk6GJQsqaUBKTNV-1" vertex="1">
          <mxGeometry x="905.3499999999999" y="542" width="100" height="30" as="geometry"/>
        </mxCell>
        <mxCell id="5Jlnsfs4VGk-h_8qWeXb-47" value="&lt;b&gt;save master &lt;br&gt;data frame&lt;br&gt;&lt;/b&gt;" style="shape=parallelogram;perimeter=parallelogramPerimeter;whiteSpace=wrap;html=1;fontFamily=Times New Roman;fontSize=12;fillColor=#dae8fc;strokeColor=#6c8ebf;" parent="WIyWlLk6GJQsqaUBKTNV-1" vertex="1">
          <mxGeometry x="805.3499999999999" y="780" width="100" height="30" as="geometry"/>
        </mxCell>
        <mxCell id="5Jlnsfs4VGk-h_8qWeXb-56" style="edgeStyle=orthogonalEdgeStyle;rounded=0;orthogonalLoop=1;jettySize=auto;html=1;exitX=0.5;exitY=1;exitDx=0;exitDy=0;fontFamily=Times New Roman;fontSize=10;" parent="WIyWlLk6GJQsqaUBKTNV-1" source="5Jlnsfs4VGk-h_8qWeXb-49" target="5Jlnsfs4VGk-h_8qWeXb-50" edge="1">
          <mxGeometry relative="1" as="geometry"/>
        </mxCell>
        <mxCell id="5Jlnsfs4VGk-h_8qWeXb-49" value="&lt;b style=&quot;font-size: 12px&quot;&gt;2.3.1&lt;/b&gt;&lt;br style=&quot;font-size: 12px&quot;&gt;Generate search queries&amp;nbsp;" style="rounded=0;whiteSpace=wrap;html=1;fontFamily=Times New Roman;fontSize=12;" parent="WIyWlLk6GJQsqaUBKTNV-1" vertex="1">
          <mxGeometry x="510" y="360.1" width="120" height="40" as="geometry"/>
        </mxCell>
        <mxCell id="5Jlnsfs4VGk-h_8qWeXb-57" style="edgeStyle=orthogonalEdgeStyle;rounded=0;orthogonalLoop=1;jettySize=auto;html=1;exitX=0.5;exitY=1;exitDx=0;exitDy=0;entryX=0.5;entryY=0;entryDx=0;entryDy=0;fontFamily=Times New Roman;fontSize=10;" parent="WIyWlLk6GJQsqaUBKTNV-1" source="5Jlnsfs4VGk-h_8qWeXb-50" target="5Jlnsfs4VGk-h_8qWeXb-38" edge="1">
          <mxGeometry relative="1" as="geometry"/>
        </mxCell>
        <mxCell id="5Jlnsfs4VGk-h_8qWeXb-50" value="&lt;b style=&quot;font-size: 12px&quot;&gt;2.3.1&lt;/b&gt;&lt;br style=&quot;font-size: 12px&quot;&gt;Identify distinct cities and countries" style="rounded=0;whiteSpace=wrap;html=1;fontFamily=Times New Roman;fontSize=12;" parent="WIyWlLk6GJQsqaUBKTNV-1" vertex="1">
          <mxGeometry x="510" y="430.1" width="120" height="40" as="geometry"/>
        </mxCell>
        <mxCell id="5Jlnsfs4VGk-h_8qWeXb-62" style="edgeStyle=orthogonalEdgeStyle;curved=1;rounded=0;orthogonalLoop=1;jettySize=auto;html=1;exitX=0.55;exitY=0.95;exitDx=0;exitDy=0;exitPerimeter=0;entryX=0.5;entryY=0;entryDx=0;entryDy=0;fontFamily=Times New Roman;fontSize=10;" parent="WIyWlLk6GJQsqaUBKTNV-1" source="5Jlnsfs4VGk-h_8qWeXb-51" target="5Jlnsfs4VGk-h_8qWeXb-59" edge="1">
          <mxGeometry relative="1" as="geometry"/>
        </mxCell>
        <mxCell id="5Jlnsfs4VGk-h_8qWeXb-51" value="Google API" style="ellipse;shape=cloud;whiteSpace=wrap;html=1;fontFamily=Times New Roman;fontSize=12;" parent="WIyWlLk6GJQsqaUBKTNV-1" vertex="1">
          <mxGeometry x="510" y="550.1" width="120" height="40" as="geometry"/>
        </mxCell>
        <mxCell id="5Jlnsfs4VGk-h_8qWeXb-65" style="edgeStyle=orthogonalEdgeStyle;curved=1;rounded=0;orthogonalLoop=1;jettySize=auto;html=1;exitX=0.5;exitY=1;exitDx=0;exitDy=0;entryX=0.5;entryY=0;entryDx=0;entryDy=0;fontFamily=Times New Roman;fontSize=10;" parent="WIyWlLk6GJQsqaUBKTNV-1" source="5Jlnsfs4VGk-h_8qWeXb-59" target="5Jlnsfs4VGk-h_8qWeXb-64" edge="1">
          <mxGeometry relative="1" as="geometry"/>
        </mxCell>
        <mxCell id="5Jlnsfs4VGk-h_8qWeXb-59" value="&lt;b&gt;geocoded city/country&lt;br&gt;&lt;/b&gt;" style="shape=parallelogram;perimeter=parallelogramPerimeter;whiteSpace=wrap;html=1;fontFamily=Times New Roman;fontSize=12;fillColor=#dae8fc;strokeColor=#6c8ebf;" parent="WIyWlLk6GJQsqaUBKTNV-1" vertex="1">
          <mxGeometry x="520" y="610.1" width="100" height="30" as="geometry"/>
        </mxCell>
        <mxCell id="5Jlnsfs4VGk-h_8qWeXb-60" value="&lt;b style=&quot;font-size: 14px&quot;&gt;&lt;font style=&quot;font-size: 14px&quot;&gt;(2.3) Geocoding&lt;br&gt;&lt;/font&gt;&lt;/b&gt;" style="text;html=1;align=left;verticalAlign=middle;resizable=0;points=[];autosize=1;fontSize=14;fontFamily=Times New Roman;" parent="WIyWlLk6GJQsqaUBKTNV-1" vertex="1">
          <mxGeometry x="480" y="300" width="140" height="20" as="geometry"/>
        </mxCell>
        <mxCell id="5Jlnsfs4VGk-h_8qWeXb-91" style="edgeStyle=orthogonalEdgeStyle;rounded=0;orthogonalLoop=1;jettySize=auto;html=1;entryX=0.5;entryY=0;entryDx=0;entryDy=0;fontFamily=Times New Roman;fontSize=10;exitX=0.5;exitY=1;exitDx=0;exitDy=0;" parent="WIyWlLk6GJQsqaUBKTNV-1" source="5Jlnsfs4VGk-h_8qWeXb-94" target="5Jlnsfs4VGk-h_8qWeXb-83" edge="1">
          <mxGeometry relative="1" as="geometry">
            <mxPoint x="630" y="900" as="sourcePoint"/>
            <Array as="points">
              <mxPoint x="570" y="790"/>
              <mxPoint x="667" y="790"/>
              <mxPoint x="667" y="530"/>
              <mxPoint x="765" y="530"/>
            </Array>
          </mxGeometry>
        </mxCell>
        <mxCell id="5Jlnsfs4VGk-h_8qWeXb-97" style="edgeStyle=orthogonalEdgeStyle;rounded=0;orthogonalLoop=1;jettySize=auto;html=1;exitX=0.5;exitY=1;exitDx=0;exitDy=0;entryX=0.5;entryY=0;entryDx=0;entryDy=0;fontFamily=Times New Roman;fontSize=10;" parent="WIyWlLk6GJQsqaUBKTNV-1" source="5Jlnsfs4VGk-h_8qWeXb-64" target="5Jlnsfs4VGk-h_8qWeXb-94" edge="1">
          <mxGeometry relative="1" as="geometry"/>
        </mxCell>
        <mxCell id="5Jlnsfs4VGk-h_8qWeXb-64" value="&lt;b style=&quot;font-size: 12px&quot;&gt;2.3.1&lt;/b&gt;&lt;br style=&quot;font-size: 12px&quot;&gt;Join coordinates to master data frame" style="rounded=0;whiteSpace=wrap;html=1;fontFamily=Times New Roman;fontSize=12;" parent="WIyWlLk6GJQsqaUBKTNV-1" vertex="1">
          <mxGeometry x="510" y="670.1" width="120" height="40" as="geometry"/>
        </mxCell>
        <mxCell id="5Jlnsfs4VGk-h_8qWeXb-78" value="&lt;b style=&quot;font-size: 14px&quot;&gt;&lt;font style=&quot;font-size: 14px&quot;&gt;Part 1 - Cities and Countries&lt;br&gt;&lt;/font&gt;&lt;/b&gt;" style="text;html=1;align=left;verticalAlign=middle;resizable=0;points=[];autosize=1;fontSize=14;fontFamily=Times New Roman;" parent="WIyWlLk6GJQsqaUBKTNV-1" vertex="1">
          <mxGeometry x="480" y="320" width="240" height="20" as="geometry"/>
        </mxCell>
        <mxCell id="5Jlnsfs4VGk-h_8qWeXb-79" value="&lt;b style=&quot;font-size: 14px&quot;&gt;&lt;font style=&quot;font-size: 14px&quot;&gt;Part 2 - Exact post coordinates&lt;br&gt;&lt;/font&gt;&lt;/b&gt;" style="text;html=1;align=left;verticalAlign=middle;resizable=0;points=[];autosize=1;fontSize=14;fontFamily=Times New Roman;" parent="WIyWlLk6GJQsqaUBKTNV-1" vertex="1">
          <mxGeometry x="675.3499999999999" y="500.1" width="250" height="20" as="geometry"/>
        </mxCell>
        <mxCell id="5Jlnsfs4VGk-h_8qWeXb-82" style="edgeStyle=orthogonalEdgeStyle;rounded=0;orthogonalLoop=1;jettySize=auto;html=1;exitX=0.5;exitY=1;exitDx=0;exitDy=0;fontFamily=Times New Roman;fontSize=10;entryX=0.498;entryY=0.139;entryDx=0;entryDy=0;entryPerimeter=0;" parent="WIyWlLk6GJQsqaUBKTNV-1" source="5Jlnsfs4VGk-h_8qWeXb-83" target="5Jlnsfs4VGk-h_8qWeXb-87" edge="1">
          <mxGeometry relative="1" as="geometry">
            <mxPoint x="765.1428571428571" y="620.1999999999999" as="targetPoint"/>
          </mxGeometry>
        </mxCell>
        <mxCell id="5Jlnsfs4VGk-h_8qWeXb-83" value="&lt;b style=&quot;font-size: 12px&quot;&gt;2.3.2&lt;/b&gt;&lt;br style=&quot;font-size: 12px&quot;&gt;Generate search queries&amp;nbsp;" style="rounded=0;whiteSpace=wrap;html=1;fontFamily=Times New Roman;fontSize=12;" parent="WIyWlLk6GJQsqaUBKTNV-1" vertex="1">
          <mxGeometry x="705.3499999999999" y="550.2" width="120" height="40" as="geometry"/>
        </mxCell>
        <mxCell id="5Jlnsfs4VGk-h_8qWeXb-99" style="edgeStyle=orthogonalEdgeStyle;rounded=0;orthogonalLoop=1;jettySize=auto;html=1;entryX=0.5;entryY=0;entryDx=0;entryDy=0;fontFamily=Times New Roman;fontSize=10;" parent="WIyWlLk6GJQsqaUBKTNV-1" source="5Jlnsfs4VGk-h_8qWeXb-87" target="5Jlnsfs4VGk-h_8qWeXb-47" edge="1">
          <mxGeometry relative="1" as="geometry">
            <Array as="points">
              <mxPoint x="765" y="740"/>
              <mxPoint x="855" y="740"/>
            </Array>
          </mxGeometry>
        </mxCell>
        <mxCell id="5Jlnsfs4VGk-h_8qWeXb-87" value="Google API" style="ellipse;shape=cloud;whiteSpace=wrap;html=1;fontFamily=Times New Roman;fontSize=12;" parent="WIyWlLk6GJQsqaUBKTNV-1" vertex="1">
          <mxGeometry x="705.3499999999999" y="630.1" width="120" height="40" as="geometry"/>
        </mxCell>
        <mxCell id="5Jlnsfs4VGk-h_8qWeXb-94" value="&lt;b&gt;merged&lt;br&gt;data frame&lt;br&gt;&lt;/b&gt;" style="shape=parallelogram;perimeter=parallelogramPerimeter;whiteSpace=wrap;html=1;fontFamily=Times New Roman;fontSize=12;fillColor=#dae8fc;strokeColor=#6c8ebf;" parent="WIyWlLk6GJQsqaUBKTNV-1" vertex="1">
          <mxGeometry x="520" y="740" width="100" height="30" as="geometry"/>
        </mxCell>
        <mxCell id="5Jlnsfs4VGk-h_8qWeXb-107" value="Output&amp;nbsp;&lt;br&gt;in csv" style="shape=parallelogram;perimeter=parallelogramPerimeter;whiteSpace=wrap;html=1;fontFamily=Times New Roman;fontSize=12;fillColor=#dae8fc;strokeColor=#6c8ebf;" parent="WIyWlLk6GJQsqaUBKTNV-1" vertex="1">
          <mxGeometry x="770" y="35" width="70" height="30" as="geometry"/>
        </mxCell>
        <mxCell id="5Jlnsfs4VGk-h_8qWeXb-108" value="Unique values" style="shape=document;whiteSpace=wrap;html=1;boundedLbl=1;fontFamily=Times New Roman;fontSize=12;align=center;" parent="WIyWlLk6GJQsqaUBKTNV-1" vertex="1">
          <mxGeometry x="290" y="670" width="70" height="30" as="geometry"/>
        </mxCell>
        <mxCell id="5Jlnsfs4VGk-h_8qWeXb-109" value="Box&amp;nbsp;plots" style="shape=document;whiteSpace=wrap;html=1;boundedLbl=1;fontFamily=Times New Roman;fontSize=12;align=center;" parent="WIyWlLk6GJQsqaUBKTNV-1" vertex="1">
          <mxGeometry x="290" y="710.05" width="70" height="30" as="geometry"/>
        </mxCell>
        <mxCell id="5Jlnsfs4VGk-h_8qWeXb-112" value="&lt;b style=&quot;font-size: 14px&quot;&gt;&lt;font style=&quot;font-size: 14px&quot;&gt;(3.0) Clustering&lt;br&gt;&lt;/font&gt;&lt;/b&gt;" style="text;html=1;align=left;verticalAlign=middle;resizable=0;points=[];autosize=1;fontSize=14;fontFamily=Times New Roman;" parent="WIyWlLk6GJQsqaUBKTNV-1" vertex="1">
          <mxGeometry x="40" y="880" width="140" height="20" as="geometry"/>
        </mxCell>
        <mxCell id="5Jlnsfs4VGk-h_8qWeXb-113" value="&lt;b&gt;master &lt;br&gt;data frame&lt;br&gt;&lt;/b&gt;" style="shape=parallelogram;perimeter=parallelogramPerimeter;whiteSpace=wrap;html=1;fontFamily=Times New Roman;fontSize=12;fillColor=#fff2cc;strokeColor=#d6b656;" parent="WIyWlLk6GJQsqaUBKTNV-1" vertex="1">
          <mxGeometry x="39.999999999999886" y="900" width="100" height="30" as="geometry"/>
        </mxCell>
        <mxCell id="5Jlnsfs4VGk-h_8qWeXb-116" style="edgeStyle=orthogonalEdgeStyle;rounded=0;orthogonalLoop=1;jettySize=auto;html=1;exitX=1;exitY=0.5;exitDx=0;exitDy=0;entryX=0;entryY=0.5;entryDx=0;entryDy=0;strokeWidth=1;fontFamily=Times New Roman;fontSize=10;" parent="WIyWlLk6GJQsqaUBKTNV-1" source="5Jlnsfs4VGk-h_8qWeXb-114" target="5Jlnsfs4VGk-h_8qWeXb-115" edge="1">
          <mxGeometry relative="1" as="geometry"/>
        </mxCell>
        <mxCell id="5Jlnsfs4VGk-h_8qWeXb-120" style="edgeStyle=orthogonalEdgeStyle;rounded=0;orthogonalLoop=1;jettySize=auto;html=1;exitX=0.5;exitY=1;exitDx=0;exitDy=0;strokeWidth=1;fontFamily=Times New Roman;fontSize=10;" parent="WIyWlLk6GJQsqaUBKTNV-1" source="5Jlnsfs4VGk-h_8qWeXb-114" target="5Jlnsfs4VGk-h_8qWeXb-117" edge="1">
          <mxGeometry relative="1" as="geometry"/>
        </mxCell>
        <mxCell id="5Jlnsfs4VGk-h_8qWeXb-114" value="&lt;b&gt;3.1&lt;/b&gt;&amp;nbsp;&lt;b&gt;Load and segment&lt;/b&gt;&lt;br style=&quot;font-size: 12px&quot;&gt;- load .csv&lt;br&gt;- rearrange columns&lt;br&gt;- separate na values" style="rounded=0;whiteSpace=wrap;html=1;fontFamily=Times New Roman;fontSize=12;" parent="WIyWlLk6GJQsqaUBKTNV-1" vertex="1">
          <mxGeometry x="40" y="940" width="120" height="60" as="geometry"/>
        </mxCell>
        <mxCell id="5Jlnsfs4VGk-h_8qWeXb-115" value="Report on missing values" style="shape=document;whiteSpace=wrap;html=1;boundedLbl=1;fontFamily=Times New Roman;fontSize=12;align=center;" parent="WIyWlLk6GJQsqaUBKTNV-1" vertex="1">
          <mxGeometry x="200" y="947.5" width="80" height="45" as="geometry"/>
        </mxCell>
        <mxCell id="5Jlnsfs4VGk-h_8qWeXb-119" style="edgeStyle=orthogonalEdgeStyle;rounded=0;orthogonalLoop=1;jettySize=auto;html=1;exitX=1;exitY=0.5;exitDx=0;exitDy=0;entryX=0;entryY=0.5;entryDx=0;entryDy=0;strokeWidth=1;fontFamily=Times New Roman;fontSize=10;" parent="WIyWlLk6GJQsqaUBKTNV-1" source="5Jlnsfs4VGk-h_8qWeXb-117" target="5Jlnsfs4VGk-h_8qWeXb-118" edge="1">
          <mxGeometry relative="1" as="geometry"/>
        </mxCell>
        <mxCell id="5Jlnsfs4VGk-h_8qWeXb-125" style="edgeStyle=orthogonalEdgeStyle;rounded=0;orthogonalLoop=1;jettySize=auto;html=1;exitX=0.5;exitY=1;exitDx=0;exitDy=0;entryX=0.5;entryY=0;entryDx=0;entryDy=0;strokeWidth=1;fontFamily=Times New Roman;fontSize=10;" parent="WIyWlLk6GJQsqaUBKTNV-1" source="5Jlnsfs4VGk-h_8qWeXb-117" target="5Jlnsfs4VGk-h_8qWeXb-121" edge="1">
          <mxGeometry relative="1" as="geometry"/>
        </mxCell>
        <mxCell id="5Jlnsfs4VGk-h_8qWeXb-117" value="&lt;b&gt;3.2 Define visualisation function&lt;/b&gt;" style="rounded=0;whiteSpace=wrap;html=1;fontFamily=Times New Roman;fontSize=12;" parent="WIyWlLk6GJQsqaUBKTNV-1" vertex="1">
          <mxGeometry x="40" y="1040" width="120" height="40" as="geometry"/>
        </mxCell>
        <mxCell id="5Jlnsfs4VGk-h_8qWeXb-118" value="3.3 Plain visualisation" style="shape=document;whiteSpace=wrap;html=1;boundedLbl=1;fontFamily=Times New Roman;fontSize=12;align=center;" parent="WIyWlLk6GJQsqaUBKTNV-1" vertex="1">
          <mxGeometry x="200" y="1040" width="80" height="40" as="geometry"/>
        </mxCell>
        <mxCell id="5Jlnsfs4VGk-h_8qWeXb-124" style="edgeStyle=orthogonalEdgeStyle;rounded=0;orthogonalLoop=1;jettySize=auto;html=1;exitX=1;exitY=0.5;exitDx=0;exitDy=0;strokeWidth=1;fontFamily=Times New Roman;fontSize=10;" parent="WIyWlLk6GJQsqaUBKTNV-1" source="5Jlnsfs4VGk-h_8qWeXb-121" target="5Jlnsfs4VGk-h_8qWeXb-123" edge="1">
          <mxGeometry relative="1" as="geometry"/>
        </mxCell>
        <mxCell id="5Jlnsfs4VGk-h_8qWeXb-121" value="&lt;b&gt;3.4 Clustering function&lt;/b&gt;" style="rounded=0;whiteSpace=wrap;html=1;fontFamily=Times New Roman;fontSize=12;" parent="WIyWlLk6GJQsqaUBKTNV-1" vertex="1">
          <mxGeometry x="40" y="1120" width="120" height="40" as="geometry"/>
        </mxCell>
        <mxCell id="5Jlnsfs4VGk-h_8qWeXb-123" value="Visualise clustered embassies" style="shape=document;whiteSpace=wrap;html=1;boundedLbl=1;fontFamily=Times New Roman;fontSize=12;align=center;" parent="WIyWlLk6GJQsqaUBKTNV-1" vertex="1">
          <mxGeometry x="200" y="1120" width="100" height="40" as="geometry"/>
        </mxCell>
        <mxCell id="5Jlnsfs4VGk-h_8qWeXb-127" value="&lt;b style=&quot;font-size: 14px&quot;&gt;&lt;font style=&quot;font-size: 14px&quot;&gt;(4.0) ACLED data&lt;br&gt;&lt;/font&gt;&lt;/b&gt;" style="text;html=1;align=left;verticalAlign=middle;resizable=0;points=[];autosize=1;fontSize=14;fontFamily=Times New Roman;" parent="WIyWlLk6GJQsqaUBKTNV-1" vertex="1">
          <mxGeometry x="40" y="1240" width="160" height="20" as="geometry"/>
        </mxCell>
        <mxCell id="5Jlnsfs4VGk-h_8qWeXb-142" style="edgeStyle=orthogonalEdgeStyle;rounded=0;orthogonalLoop=1;jettySize=auto;html=1;exitX=1;exitY=0.5;exitDx=0;exitDy=0;entryX=0;entryY=0.5;entryDx=0;entryDy=0;strokeWidth=1;fontFamily=Times New Roman;fontSize=10;" parent="WIyWlLk6GJQsqaUBKTNV-1" source="5Jlnsfs4VGk-h_8qWeXb-131" target="5Jlnsfs4VGk-h_8qWeXb-141" edge="1">
          <mxGeometry relative="1" as="geometry"/>
        </mxCell>
        <mxCell id="5Jlnsfs4VGk-h_8qWeXb-228" style="edgeStyle=orthogonalEdgeStyle;rounded=0;orthogonalLoop=1;jettySize=auto;html=1;exitX=0.5;exitY=1;exitDx=0;exitDy=0;entryX=0.5;entryY=0;entryDx=0;entryDy=0;strokeWidth=1;fontFamily=Times New Roman;fontSize=10;fillColor=#f8cecc;strokeColor=#b85450;" parent="WIyWlLk6GJQsqaUBKTNV-1" source="5Jlnsfs4VGk-h_8qWeXb-131" target="5Jlnsfs4VGk-h_8qWeXb-227" edge="1">
          <mxGeometry relative="1" as="geometry"/>
        </mxCell>
        <mxCell id="5Jlnsfs4VGk-h_8qWeXb-131" value="&lt;b&gt;4.1 ACLED api function&amp;nbsp;setup&lt;/b&gt;" style="rounded=0;whiteSpace=wrap;html=1;fontFamily=Times New Roman;fontSize=12;" parent="WIyWlLk6GJQsqaUBKTNV-1" vertex="1">
          <mxGeometry x="40" y="1280" width="120" height="40" as="geometry"/>
        </mxCell>
        <mxCell id="5Jlnsfs4VGk-h_8qWeXb-140" style="edgeStyle=orthogonalEdgeStyle;rounded=0;orthogonalLoop=1;jettySize=auto;html=1;exitX=0.5;exitY=1;exitDx=0;exitDy=0;fontFamily=Times New Roman;fontSize=10;fillColor=#f8cecc;strokeColor=#b85450;dashed=1;strokeWidth=2;" parent="WIyWlLk6GJQsqaUBKTNV-1" source="5Jlnsfs4VGk-h_8qWeXb-111" target="5Jlnsfs4VGk-h_8qWeXb-126" edge="1">
          <mxGeometry relative="1" as="geometry">
            <mxPoint x="144.7234482758621" y="1260.2789655172414" as="sourcePoint"/>
            <mxPoint x="719.8958620689656" y="1360.2789655172414" as="targetPoint"/>
            <Array as="points">
              <mxPoint x="170" y="1210"/>
              <mxPoint x="170" y="1210"/>
            </Array>
          </mxGeometry>
        </mxCell>
        <mxCell id="5Jlnsfs4VGk-h_8qWeXb-141" value="visualise clustered embassies with conflict event layer" style="shape=document;whiteSpace=wrap;html=1;boundedLbl=1;fontFamily=Times New Roman;fontSize=12;align=center;" parent="WIyWlLk6GJQsqaUBKTNV-1" vertex="1">
          <mxGeometry x="200" y="1265" width="100" height="70" as="geometry"/>
        </mxCell>
        <mxCell id="5Jlnsfs4VGk-h_8qWeXb-148" value="&lt;b style=&quot;font-size: 14px&quot;&gt;&lt;font style=&quot;font-size: 14px&quot;&gt;3.2 Function breakdown&lt;br&gt;&lt;/font&gt;&lt;/b&gt;" style="text;html=1;align=left;verticalAlign=middle;resizable=0;points=[];autosize=1;fontSize=14;fontFamily=Times New Roman;" parent="WIyWlLk6GJQsqaUBKTNV-1" vertex="1">
          <mxGeometry x="320" y="1020" width="200" height="20" as="geometry"/>
        </mxCell>
        <mxCell id="5Jlnsfs4VGk-h_8qWeXb-149" value="&lt;b style=&quot;font-size: 14px&quot;&gt;&lt;font style=&quot;font-size: 14px&quot;&gt;3.4 Function breakdown&lt;br&gt;&lt;/font&gt;&lt;/b&gt;" style="text;html=1;align=left;verticalAlign=middle;resizable=0;points=[];autosize=1;fontSize=14;fontFamily=Times New Roman;" parent="WIyWlLk6GJQsqaUBKTNV-1" vertex="1">
          <mxGeometry x="320" y="1110" width="200" height="20" as="geometry"/>
        </mxCell>
        <mxCell id="5Jlnsfs4VGk-h_8qWeXb-150" value="&lt;b style=&quot;font-size: 14px&quot;&gt;&lt;font style=&quot;font-size: 14px&quot;&gt;4.1 Function breakdown&lt;br&gt;&lt;/font&gt;&lt;/b&gt;" style="text;html=1;align=left;verticalAlign=middle;resizable=0;points=[];autosize=1;fontSize=14;fontFamily=Times New Roman;" parent="WIyWlLk6GJQsqaUBKTNV-1" vertex="1">
          <mxGeometry x="320" y="1260" width="200" height="20" as="geometry"/>
        </mxCell>
        <mxCell id="5Jlnsfs4VGk-h_8qWeXb-151" style="edgeStyle=orthogonalEdgeStyle;rounded=0;orthogonalLoop=1;jettySize=auto;html=1;exitX=0.5;exitY=1;exitDx=0;exitDy=0;fontFamily=Times New Roman;fontSize=10;fillColor=#dae8fc;strokeColor=#6c8ebf;dashed=1;strokeWidth=2;" parent="WIyWlLk6GJQsqaUBKTNV-1" source="5Jlnsfs4VGk-h_8qWeXb-47" target="5Jlnsfs4VGk-h_8qWeXb-113" edge="1">
          <mxGeometry relative="1" as="geometry">
            <mxPoint x="360" y="937.0033333333336" as="sourcePoint"/>
            <mxPoint x="380" y="910" as="targetPoint"/>
            <Array as="points">
              <mxPoint x="856" y="840"/>
              <mxPoint x="650" y="840"/>
              <mxPoint x="650" y="915"/>
            </Array>
          </mxGeometry>
        </mxCell>
        <mxCell id="5Jlnsfs4VGk-h_8qWeXb-155" style="edgeStyle=orthogonalEdgeStyle;rounded=0;orthogonalLoop=1;jettySize=auto;html=1;exitX=1;exitY=0.5;exitDx=0;exitDy=0;entryX=0;entryY=0.5;entryDx=0;entryDy=0;strokeWidth=1;fontFamily=Times New Roman;fontSize=10;" parent="WIyWlLk6GJQsqaUBKTNV-1" source="5Jlnsfs4VGk-h_8qWeXb-152" target="5Jlnsfs4VGk-h_8qWeXb-154" edge="1">
          <mxGeometry relative="1" as="geometry">
            <Array as="points">
              <mxPoint x="430" y="1050"/>
              <mxPoint x="430" y="1060"/>
            </Array>
          </mxGeometry>
        </mxCell>
        <mxCell id="5Jlnsfs4VGk-h_8qWeXb-152" value="&lt;b style=&quot;font-size: 10px;&quot;&gt;city filter&lt;br style=&quot;font-size: 10px;&quot;&gt;&lt;/b&gt;" style="shape=parallelogram;perimeter=parallelogramPerimeter;whiteSpace=wrap;html=1;fontFamily=Times New Roman;fontSize=10;fillColor=#fff2cc;strokeColor=#d6b656;" parent="WIyWlLk6GJQsqaUBKTNV-1" vertex="1">
          <mxGeometry x="320" y="1040" width="100" height="20" as="geometry"/>
        </mxCell>
        <mxCell id="5Jlnsfs4VGk-h_8qWeXb-157" style="edgeStyle=orthogonalEdgeStyle;rounded=0;orthogonalLoop=1;jettySize=auto;html=1;exitX=1;exitY=0.5;exitDx=0;exitDy=0;entryX=0;entryY=0.5;entryDx=0;entryDy=0;strokeWidth=1;fontFamily=Times New Roman;fontSize=10;" parent="WIyWlLk6GJQsqaUBKTNV-1" source="5Jlnsfs4VGk-h_8qWeXb-153" target="5Jlnsfs4VGk-h_8qWeXb-154" edge="1">
          <mxGeometry relative="1" as="geometry">
            <Array as="points">
              <mxPoint x="430" y="1080"/>
              <mxPoint x="430" y="1060"/>
            </Array>
          </mxGeometry>
        </mxCell>
        <mxCell id="5Jlnsfs4VGk-h_8qWeXb-153" value="&lt;b style=&quot;font-size: 10px;&quot;&gt;data frame&lt;/b&gt;&lt;b style=&quot;font-size: 10px;&quot;&gt;&lt;br style=&quot;font-size: 10px;&quot;&gt;&lt;/b&gt;" style="shape=parallelogram;perimeter=parallelogramPerimeter;whiteSpace=wrap;html=1;fontFamily=Times New Roman;fontSize=10;fillColor=#fff2cc;strokeColor=#d6b656;" parent="WIyWlLk6GJQsqaUBKTNV-1" vertex="1">
          <mxGeometry x="320" y="1070" width="100" height="20" as="geometry"/>
        </mxCell>
        <mxCell id="5Jlnsfs4VGk-h_8qWeXb-159" style="edgeStyle=orthogonalEdgeStyle;rounded=0;orthogonalLoop=1;jettySize=auto;html=1;exitX=1;exitY=0.5;exitDx=0;exitDy=0;strokeWidth=1;fontFamily=Times New Roman;fontSize=10;" parent="WIyWlLk6GJQsqaUBKTNV-1" source="5Jlnsfs4VGk-h_8qWeXb-154" target="5Jlnsfs4VGk-h_8qWeXb-158" edge="1">
          <mxGeometry relative="1" as="geometry"/>
        </mxCell>
        <mxCell id="5Jlnsfs4VGk-h_8qWeXb-154" value="&lt;b&gt;Filter data frame&lt;/b&gt;" style="rounded=0;whiteSpace=wrap;html=1;fontFamily=Times New Roman;fontSize=10;" parent="WIyWlLk6GJQsqaUBKTNV-1" vertex="1">
          <mxGeometry x="450" y="1050" width="90" height="20" as="geometry"/>
        </mxCell>
        <mxCell id="5Jlnsfs4VGk-h_8qWeXb-161" style="edgeStyle=orthogonalEdgeStyle;rounded=0;orthogonalLoop=1;jettySize=auto;html=1;exitX=1;exitY=0.5;exitDx=0;exitDy=0;entryX=0;entryY=0.5;entryDx=0;entryDy=0;strokeWidth=1;fontFamily=Times New Roman;fontSize=10;" parent="WIyWlLk6GJQsqaUBKTNV-1" source="5Jlnsfs4VGk-h_8qWeXb-158" target="5Jlnsfs4VGk-h_8qWeXb-160" edge="1">
          <mxGeometry relative="1" as="geometry"/>
        </mxCell>
        <mxCell id="5Jlnsfs4VGk-h_8qWeXb-158" value="&lt;b&gt;create sf object&lt;/b&gt;" style="rounded=0;whiteSpace=wrap;html=1;fontFamily=Times New Roman;fontSize=10;" parent="WIyWlLk6GJQsqaUBKTNV-1" vertex="1">
          <mxGeometry x="555" y="1050" width="90" height="20" as="geometry"/>
        </mxCell>
        <mxCell id="5Jlnsfs4VGk-h_8qWeXb-164" style="edgeStyle=orthogonalEdgeStyle;rounded=0;orthogonalLoop=1;jettySize=auto;html=1;exitX=1;exitY=0.5;exitDx=0;exitDy=0;strokeWidth=1;fontFamily=Times New Roman;fontSize=10;" parent="WIyWlLk6GJQsqaUBKTNV-1" source="5Jlnsfs4VGk-h_8qWeXb-160" target="5Jlnsfs4VGk-h_8qWeXb-162" edge="1">
          <mxGeometry relative="1" as="geometry"/>
        </mxCell>
        <mxCell id="5Jlnsfs4VGk-h_8qWeXb-165" style="edgeStyle=orthogonalEdgeStyle;rounded=0;orthogonalLoop=1;jettySize=auto;html=1;exitX=1;exitY=0.5;exitDx=0;exitDy=0;entryX=0.133;entryY=0.433;entryDx=0;entryDy=0;entryPerimeter=0;strokeWidth=1;fontFamily=Times New Roman;fontSize=10;" parent="WIyWlLk6GJQsqaUBKTNV-1" source="5Jlnsfs4VGk-h_8qWeXb-160" target="5Jlnsfs4VGk-h_8qWeXb-163" edge="1">
          <mxGeometry relative="1" as="geometry"/>
        </mxCell>
        <mxCell id="5Jlnsfs4VGk-h_8qWeXb-160" value="&lt;b&gt;map view&amp;nbsp;&lt;/b&gt;" style="rounded=0;whiteSpace=wrap;html=1;fontFamily=Times New Roman;fontSize=10;" parent="WIyWlLk6GJQsqaUBKTNV-1" vertex="1">
          <mxGeometry x="660" y="1050" width="90" height="20" as="geometry"/>
        </mxCell>
        <mxCell id="5Jlnsfs4VGk-h_8qWeXb-162" value="&lt;b style=&quot;font-size: 10px&quot;&gt;save html map&lt;br style=&quot;font-size: 10px&quot;&gt;&lt;/b&gt;" style="shape=parallelogram;perimeter=parallelogramPerimeter;whiteSpace=wrap;html=1;fontFamily=Times New Roman;fontSize=10;fillColor=#dae8fc;strokeColor=#6c8ebf;" parent="WIyWlLk6GJQsqaUBKTNV-1" vertex="1">
          <mxGeometry x="775" y="1030" width="145" height="20" as="geometry"/>
        </mxCell>
        <mxCell id="5Jlnsfs4VGk-h_8qWeXb-163" value="&lt;b style=&quot;font-size: 10px&quot;&gt;return filtered df, map&lt;br style=&quot;font-size: 10px&quot;&gt;&lt;/b&gt;" style="shape=parallelogram;perimeter=parallelogramPerimeter;whiteSpace=wrap;html=1;fontFamily=Times New Roman;fontSize=10;fillColor=#e1d5e7;strokeColor=#9673a6;" parent="WIyWlLk6GJQsqaUBKTNV-1" vertex="1">
          <mxGeometry x="775" y="1060" width="145" height="20" as="geometry"/>
        </mxCell>
        <mxCell id="5Jlnsfs4VGk-h_8qWeXb-182" style="edgeStyle=orthogonalEdgeStyle;rounded=0;orthogonalLoop=1;jettySize=auto;html=1;exitX=1;exitY=0.5;exitDx=0;exitDy=0;entryX=0;entryY=0.5;entryDx=0;entryDy=0;strokeWidth=1;fontFamily=Times New Roman;fontSize=10;" parent="WIyWlLk6GJQsqaUBKTNV-1" source="5Jlnsfs4VGk-h_8qWeXb-167" target="5Jlnsfs4VGk-h_8qWeXb-168" edge="1">
          <mxGeometry relative="1" as="geometry">
            <Array as="points">
              <mxPoint x="580" y="1140"/>
              <mxPoint x="580" y="1130"/>
            </Array>
          </mxGeometry>
        </mxCell>
        <mxCell id="5Jlnsfs4VGk-h_8qWeXb-183" style="edgeStyle=orthogonalEdgeStyle;rounded=0;orthogonalLoop=1;jettySize=auto;html=1;exitX=1;exitY=0.5;exitDx=0;exitDy=0;entryX=0;entryY=0.5;entryDx=0;entryDy=0;strokeWidth=1;fontFamily=Times New Roman;fontSize=10;" parent="WIyWlLk6GJQsqaUBKTNV-1" source="5Jlnsfs4VGk-h_8qWeXb-167" target="5Jlnsfs4VGk-h_8qWeXb-169" edge="1">
          <mxGeometry relative="1" as="geometry">
            <Array as="points">
              <mxPoint x="580" y="1140"/>
              <mxPoint x="580" y="1160"/>
            </Array>
          </mxGeometry>
        </mxCell>
        <mxCell id="5Jlnsfs4VGk-h_8qWeXb-167" value="&lt;b&gt;box plot&amp;nbsp;&lt;/b&gt;" style="rounded=0;whiteSpace=wrap;html=1;fontFamily=Times New Roman;fontSize=10;" parent="WIyWlLk6GJQsqaUBKTNV-1" vertex="1">
          <mxGeometry x="480" y="1130" width="90" height="20" as="geometry"/>
        </mxCell>
        <mxCell id="5Jlnsfs4VGk-h_8qWeXb-190" style="edgeStyle=orthogonalEdgeStyle;rounded=0;orthogonalLoop=1;jettySize=auto;html=1;exitX=1;exitY=0.5;exitDx=0;exitDy=0;entryX=0.005;entryY=0.461;entryDx=0;entryDy=0;entryPerimeter=0;strokeWidth=1;fontFamily=Times New Roman;fontSize=10;" parent="WIyWlLk6GJQsqaUBKTNV-1" source="5Jlnsfs4VGk-h_8qWeXb-168" target="5Jlnsfs4VGk-h_8qWeXb-177" edge="1">
          <mxGeometry relative="1" as="geometry">
            <Array as="points">
              <mxPoint x="920" y="1130"/>
              <mxPoint x="920" y="1143"/>
            </Array>
          </mxGeometry>
        </mxCell>
        <mxCell id="5Jlnsfs4VGk-h_8qWeXb-168" value="&lt;b&gt;filter out outliers&lt;/b&gt;" style="rounded=0;whiteSpace=wrap;html=1;fontFamily=Times New Roman;fontSize=10;" parent="WIyWlLk6GJQsqaUBKTNV-1" vertex="1">
          <mxGeometry x="590" y="1120" width="90" height="20" as="geometry"/>
        </mxCell>
        <mxCell id="5Jlnsfs4VGk-h_8qWeXb-184" style="edgeStyle=orthogonalEdgeStyle;rounded=0;orthogonalLoop=1;jettySize=auto;html=1;exitX=1;exitY=0.5;exitDx=0;exitDy=0;entryX=0;entryY=0.5;entryDx=0;entryDy=0;strokeWidth=1;fontFamily=Times New Roman;fontSize=10;" parent="WIyWlLk6GJQsqaUBKTNV-1" source="5Jlnsfs4VGk-h_8qWeXb-169" target="5Jlnsfs4VGk-h_8qWeXb-173" edge="1">
          <mxGeometry relative="1" as="geometry">
            <Array as="points">
              <mxPoint x="690" y="1160"/>
              <mxPoint x="690" y="1170"/>
            </Array>
          </mxGeometry>
        </mxCell>
        <mxCell id="5Jlnsfs4VGk-h_8qWeXb-185" style="edgeStyle=orthogonalEdgeStyle;rounded=0;orthogonalLoop=1;jettySize=auto;html=1;exitX=1;exitY=0.5;exitDx=0;exitDy=0;entryX=-0.011;entryY=0.468;entryDx=0;entryDy=0;entryPerimeter=0;strokeWidth=1;fontFamily=Times New Roman;fontSize=10;" parent="WIyWlLk6GJQsqaUBKTNV-1" source="5Jlnsfs4VGk-h_8qWeXb-169" target="5Jlnsfs4VGk-h_8qWeXb-174" edge="1">
          <mxGeometry relative="1" as="geometry">
            <Array as="points">
              <mxPoint x="690" y="1160"/>
              <mxPoint x="690" y="1144"/>
            </Array>
          </mxGeometry>
        </mxCell>
        <mxCell id="5Jlnsfs4VGk-h_8qWeXb-169" value="&lt;b&gt;non-outliers&lt;br&gt;&lt;/b&gt;" style="rounded=0;whiteSpace=wrap;html=1;fontFamily=Times New Roman;fontSize=10;" parent="WIyWlLk6GJQsqaUBKTNV-1" vertex="1">
          <mxGeometry x="590" y="1150" width="90" height="20" as="geometry"/>
        </mxCell>
        <mxCell id="5Jlnsfs4VGk-h_8qWeXb-180" style="edgeStyle=orthogonalEdgeStyle;rounded=0;orthogonalLoop=1;jettySize=auto;html=1;exitX=0.5;exitY=1;exitDx=0;exitDy=0;entryX=0;entryY=0.5;entryDx=0;entryDy=0;strokeWidth=1;fontFamily=Times New Roman;fontSize=10;" parent="WIyWlLk6GJQsqaUBKTNV-1" source="5Jlnsfs4VGk-h_8qWeXb-170" target="5Jlnsfs4VGk-h_8qWeXb-171" edge="1">
          <mxGeometry relative="1" as="geometry">
            <Array as="points">
              <mxPoint x="385" y="1165"/>
            </Array>
          </mxGeometry>
        </mxCell>
        <mxCell id="5Jlnsfs4VGk-h_8qWeXb-170" value="&lt;b&gt;run function 3.2&lt;/b&gt;" style="rounded=0;whiteSpace=wrap;html=1;fontFamily=Times New Roman;fontSize=10;" parent="WIyWlLk6GJQsqaUBKTNV-1" vertex="1">
          <mxGeometry x="340" y="1130" width="90" height="20" as="geometry"/>
        </mxCell>
        <mxCell id="5Jlnsfs4VGk-h_8qWeXb-181" style="edgeStyle=orthogonalEdgeStyle;rounded=0;orthogonalLoop=1;jettySize=auto;html=1;exitX=1;exitY=0.5;exitDx=0;exitDy=0;strokeWidth=1;fontFamily=Times New Roman;fontSize=10;" parent="WIyWlLk6GJQsqaUBKTNV-1" source="5Jlnsfs4VGk-h_8qWeXb-171" target="5Jlnsfs4VGk-h_8qWeXb-167" edge="1">
          <mxGeometry relative="1" as="geometry">
            <Array as="points">
              <mxPoint x="525" y="1165"/>
            </Array>
          </mxGeometry>
        </mxCell>
        <mxCell id="5Jlnsfs4VGk-h_8qWeXb-171" value="&lt;b style=&quot;font-size: 10px&quot;&gt;3.2 data frame&lt;/b&gt;&lt;b style=&quot;font-size: 10px&quot;&gt;&lt;br style=&quot;font-size: 10px&quot;&gt;&lt;/b&gt;" style="shape=parallelogram;perimeter=parallelogramPerimeter;whiteSpace=wrap;html=1;fontFamily=Times New Roman;fontSize=10;fillColor=#fff2cc;strokeColor=#d6b656;" parent="WIyWlLk6GJQsqaUBKTNV-1" vertex="1">
          <mxGeometry x="400" y="1155" width="100" height="20" as="geometry"/>
        </mxCell>
        <mxCell id="5Jlnsfs4VGk-h_8qWeXb-187" style="edgeStyle=orthogonalEdgeStyle;rounded=0;orthogonalLoop=1;jettySize=auto;html=1;exitX=1;exitY=0.5;exitDx=0;exitDy=0;entryX=0;entryY=0.5;entryDx=0;entryDy=0;strokeWidth=1;fontFamily=Times New Roman;fontSize=10;" parent="WIyWlLk6GJQsqaUBKTNV-1" source="5Jlnsfs4VGk-h_8qWeXb-173" target="5Jlnsfs4VGk-h_8qWeXb-175" edge="1">
          <mxGeometry relative="1" as="geometry">
            <Array as="points">
              <mxPoint x="805" y="1160"/>
            </Array>
          </mxGeometry>
        </mxCell>
        <mxCell id="5Jlnsfs4VGk-h_8qWeXb-173" value="&lt;b&gt;run DBSCAN&lt;/b&gt;" style="rounded=0;whiteSpace=wrap;html=1;fontFamily=Times New Roman;fontSize=10;" parent="WIyWlLk6GJQsqaUBKTNV-1" vertex="1">
          <mxGeometry x="715.1800000000001" y="1160" width="90" height="20" as="geometry"/>
        </mxCell>
        <mxCell id="5Jlnsfs4VGk-h_8qWeXb-189" style="edgeStyle=orthogonalEdgeStyle;rounded=0;orthogonalLoop=1;jettySize=auto;html=1;exitX=1;exitY=0.5;exitDx=0;exitDy=0;entryX=0;entryY=0.5;entryDx=0;entryDy=0;strokeWidth=1;fontFamily=Times New Roman;fontSize=10;" parent="WIyWlLk6GJQsqaUBKTNV-1" source="5Jlnsfs4VGk-h_8qWeXb-174" target="5Jlnsfs4VGk-h_8qWeXb-175" edge="1">
          <mxGeometry relative="1" as="geometry">
            <Array as="points">
              <mxPoint x="810" y="1145"/>
              <mxPoint x="810" y="1160"/>
            </Array>
          </mxGeometry>
        </mxCell>
        <mxCell id="5Jlnsfs4VGk-h_8qWeXb-174" value="&lt;b&gt;run k plot&lt;/b&gt;" style="rounded=0;whiteSpace=wrap;html=1;fontFamily=Times New Roman;fontSize=10;" parent="WIyWlLk6GJQsqaUBKTNV-1" vertex="1">
          <mxGeometry x="715" y="1135" width="90" height="20" as="geometry"/>
        </mxCell>
        <mxCell id="5Jlnsfs4VGk-h_8qWeXb-188" style="edgeStyle=orthogonalEdgeStyle;rounded=0;orthogonalLoop=1;jettySize=auto;html=1;exitX=1;exitY=0.5;exitDx=0;exitDy=0;entryX=0.003;entryY=0.461;entryDx=0;entryDy=0;entryPerimeter=0;strokeWidth=1;fontFamily=Times New Roman;fontSize=10;" parent="WIyWlLk6GJQsqaUBKTNV-1" source="5Jlnsfs4VGk-h_8qWeXb-175" target="5Jlnsfs4VGk-h_8qWeXb-177" edge="1">
          <mxGeometry relative="1" as="geometry">
            <Array as="points">
              <mxPoint x="915" y="1143"/>
            </Array>
          </mxGeometry>
        </mxCell>
        <mxCell id="5Jlnsfs4VGk-h_8qWeXb-175" value="&lt;b&gt;join cluster to &lt;br&gt;filter df&lt;/b&gt;" style="rounded=0;whiteSpace=wrap;html=1;fontFamily=Times New Roman;fontSize=10;" parent="WIyWlLk6GJQsqaUBKTNV-1" vertex="1">
          <mxGeometry x="825.35" y="1150" width="90" height="20" as="geometry"/>
        </mxCell>
        <mxCell id="5Jlnsfs4VGk-h_8qWeXb-191" style="edgeStyle=orthogonalEdgeStyle;rounded=0;orthogonalLoop=1;jettySize=auto;html=1;exitX=1;exitY=0.5;exitDx=0;exitDy=0;entryX=0;entryY=0.25;entryDx=0;entryDy=0;strokeWidth=1;fontFamily=Times New Roman;fontSize=10;" parent="WIyWlLk6GJQsqaUBKTNV-1" source="5Jlnsfs4VGk-h_8qWeXb-177" target="5Jlnsfs4VGk-h_8qWeXb-179" edge="1">
          <mxGeometry relative="1" as="geometry">
            <Array as="points">
              <mxPoint x="1030" y="1145"/>
              <mxPoint x="1030" y="1126"/>
            </Array>
          </mxGeometry>
        </mxCell>
        <mxCell id="5Jlnsfs4VGk-h_8qWeXb-192" style="edgeStyle=orthogonalEdgeStyle;rounded=0;orthogonalLoop=1;jettySize=auto;html=1;exitX=1;exitY=0.5;exitDx=0;exitDy=0;entryX=0;entryY=0.5;entryDx=0;entryDy=0;strokeWidth=1;fontFamily=Times New Roman;fontSize=10;" parent="WIyWlLk6GJQsqaUBKTNV-1" source="5Jlnsfs4VGk-h_8qWeXb-177" target="5Jlnsfs4VGk-h_8qWeXb-178" edge="1">
          <mxGeometry relative="1" as="geometry">
            <Array as="points">
              <mxPoint x="1030" y="1145"/>
              <mxPoint x="1030" y="1160"/>
            </Array>
          </mxGeometry>
        </mxCell>
        <mxCell id="5Jlnsfs4VGk-h_8qWeXb-177" value="&lt;b&gt;re-run function 3.2 with cluster for colours&lt;/b&gt;" style="rounded=0;whiteSpace=wrap;html=1;fontFamily=Times New Roman;fontSize=10;" parent="WIyWlLk6GJQsqaUBKTNV-1" vertex="1">
          <mxGeometry x="930" y="1120" width="90" height="50" as="geometry"/>
        </mxCell>
        <mxCell id="5Jlnsfs4VGk-h_8qWeXb-178" value="&lt;b&gt;&lt;font size=&quot;1&quot;&gt;return: cluster&amp;nbsp;&lt;/font&gt;map; &lt;br&gt;df; k plot;&lt;br style=&quot;font-size: 10px&quot;&gt;&lt;/b&gt;" style="shape=parallelogram;perimeter=parallelogramPerimeter;whiteSpace=wrap;html=1;fontFamily=Times New Roman;fontSize=10;fillColor=#e1d5e7;strokeColor=#9673a6;" parent="WIyWlLk6GJQsqaUBKTNV-1" vertex="1">
          <mxGeometry x="1025" y="1150" width="125" height="20" as="geometry"/>
        </mxCell>
        <mxCell id="5Jlnsfs4VGk-h_8qWeXb-179" value="&lt;b style=&quot;font-size: 10px&quot;&gt;save html map&lt;br style=&quot;font-size: 10px&quot;&gt;&lt;/b&gt;" style="shape=parallelogram;perimeter=parallelogramPerimeter;whiteSpace=wrap;html=1;fontFamily=Times New Roman;fontSize=10;fillColor=#dae8fc;strokeColor=#6c8ebf;" parent="WIyWlLk6GJQsqaUBKTNV-1" vertex="1">
          <mxGeometry x="1040" y="1120" width="95" height="20" as="geometry"/>
        </mxCell>
        <mxCell id="5Jlnsfs4VGk-h_8qWeXb-196" style="edgeStyle=orthogonalEdgeStyle;rounded=0;orthogonalLoop=1;jettySize=auto;html=1;exitX=1;exitY=0.5;exitDx=0;exitDy=0;entryX=0;entryY=0.5;entryDx=0;entryDy=0;strokeWidth=1;fontFamily=Times New Roman;fontSize=10;" parent="WIyWlLk6GJQsqaUBKTNV-1" source="5Jlnsfs4VGk-h_8qWeXb-193" target="5Jlnsfs4VGk-h_8qWeXb-195" edge="1">
          <mxGeometry relative="1" as="geometry"/>
        </mxCell>
        <mxCell id="5Jlnsfs4VGk-h_8qWeXb-193" value="&lt;b style=&quot;font-size: 10px&quot;&gt;all inputs for&lt;br&gt;3.2 &amp;amp; 3.4&lt;br style=&quot;font-size: 10px&quot;&gt;&lt;/b&gt;" style="shape=parallelogram;perimeter=parallelogramPerimeter;whiteSpace=wrap;html=1;fontFamily=Times New Roman;fontSize=10;fillColor=#fff2cc;strokeColor=#d6b656;" parent="WIyWlLk6GJQsqaUBKTNV-1" vertex="1">
          <mxGeometry x="320" y="1280" width="100" height="20" as="geometry"/>
        </mxCell>
        <mxCell id="5Jlnsfs4VGk-h_8qWeXb-201" style="edgeStyle=orthogonalEdgeStyle;rounded=0;orthogonalLoop=1;jettySize=auto;html=1;exitX=1;exitY=0.5;exitDx=0;exitDy=0;strokeWidth=1;fontFamily=Times New Roman;fontSize=10;" parent="WIyWlLk6GJQsqaUBKTNV-1" source="5Jlnsfs4VGk-h_8qWeXb-194" target="5Jlnsfs4VGk-h_8qWeXb-199" edge="1">
          <mxGeometry relative="1" as="geometry"/>
        </mxCell>
        <mxCell id="5Jlnsfs4VGk-h_8qWeXb-194" value="&lt;b style=&quot;font-size: 10px&quot;&gt;year; city T/F&lt;br style=&quot;font-size: 10px&quot;&gt;&lt;/b&gt;" style="shape=parallelogram;perimeter=parallelogramPerimeter;whiteSpace=wrap;html=1;fontFamily=Times New Roman;fontSize=10;fillColor=#fff2cc;strokeColor=#d6b656;" parent="WIyWlLk6GJQsqaUBKTNV-1" vertex="1">
          <mxGeometry x="320" y="1310" width="100" height="20" as="geometry"/>
        </mxCell>
        <mxCell id="5Jlnsfs4VGk-h_8qWeXb-202" style="edgeStyle=orthogonalEdgeStyle;rounded=0;orthogonalLoop=1;jettySize=auto;html=1;exitX=1;exitY=0.5;exitDx=0;exitDy=0;entryX=0.5;entryY=1;entryDx=0;entryDy=0;strokeWidth=1;fontFamily=Times New Roman;fontSize=10;" parent="WIyWlLk6GJQsqaUBKTNV-1" source="5Jlnsfs4VGk-h_8qWeXb-195" target="5Jlnsfs4VGk-h_8qWeXb-198" edge="1">
          <mxGeometry relative="1" as="geometry"/>
        </mxCell>
        <mxCell id="5Jlnsfs4VGk-h_8qWeXb-195" value="&lt;b&gt;run function 3.4&lt;/b&gt;" style="rounded=0;whiteSpace=wrap;html=1;fontFamily=Times New Roman;fontSize=10;" parent="WIyWlLk6GJQsqaUBKTNV-1" vertex="1">
          <mxGeometry x="450" y="1280" width="90" height="20" as="geometry"/>
        </mxCell>
        <mxCell id="5Jlnsfs4VGk-h_8qWeXb-203" style="edgeStyle=orthogonalEdgeStyle;rounded=0;orthogonalLoop=1;jettySize=auto;html=1;exitX=1;exitY=0.5;exitDx=0;exitDy=0;entryX=0;entryY=0.5;entryDx=0;entryDy=0;strokeWidth=1;fontFamily=Times New Roman;fontSize=10;" parent="WIyWlLk6GJQsqaUBKTNV-1" source="5Jlnsfs4VGk-h_8qWeXb-198" target="5Jlnsfs4VGk-h_8qWeXb-200" edge="1">
          <mxGeometry relative="1" as="geometry"/>
        </mxCell>
        <mxCell id="5Jlnsfs4VGk-h_8qWeXb-198" value="&lt;b style=&quot;font-size: 10px&quot;&gt;3.4 data frame&lt;/b&gt;&lt;b style=&quot;font-size: 10px&quot;&gt;&lt;br style=&quot;font-size: 10px&quot;&gt;&lt;/b&gt;" style="shape=parallelogram;perimeter=parallelogramPerimeter;whiteSpace=wrap;html=1;fontFamily=Times New Roman;fontSize=10;fillColor=#fff2cc;strokeColor=#d6b656;" parent="WIyWlLk6GJQsqaUBKTNV-1" vertex="1">
          <mxGeometry x="550" y="1265" width="100" height="20" as="geometry"/>
        </mxCell>
        <mxCell id="5Jlnsfs4VGk-h_8qWeXb-207" style="edgeStyle=orthogonalEdgeStyle;rounded=0;orthogonalLoop=1;jettySize=auto;html=1;exitX=1;exitY=0.5;exitDx=0;exitDy=0;entryX=0.16;entryY=0.55;entryDx=0;entryDy=0;strokeWidth=1;fontFamily=Times New Roman;fontSize=10;entryPerimeter=0;" parent="WIyWlLk6GJQsqaUBKTNV-1" source="5Jlnsfs4VGk-h_8qWeXb-199" target="5Jlnsfs4VGk-h_8qWeXb-229" edge="1">
          <mxGeometry relative="1" as="geometry">
            <mxPoint x="769.8095238095236" y="1320.2380952380952" as="targetPoint"/>
          </mxGeometry>
        </mxCell>
        <mxCell id="5Jlnsfs4VGk-h_8qWeXb-199" value="&lt;b&gt;build API call&lt;/b&gt;" style="rounded=0;whiteSpace=wrap;html=1;fontFamily=Times New Roman;fontSize=10;" parent="WIyWlLk6GJQsqaUBKTNV-1" vertex="1">
          <mxGeometry x="660" y="1310" width="90" height="20" as="geometry"/>
        </mxCell>
        <mxCell id="5Jlnsfs4VGk-h_8qWeXb-204" style="edgeStyle=orthogonalEdgeStyle;rounded=0;orthogonalLoop=1;jettySize=auto;html=1;exitX=0.5;exitY=1;exitDx=0;exitDy=0;strokeWidth=1;fontFamily=Times New Roman;fontSize=10;" parent="WIyWlLk6GJQsqaUBKTNV-1" source="5Jlnsfs4VGk-h_8qWeXb-200" target="5Jlnsfs4VGk-h_8qWeXb-199" edge="1">
          <mxGeometry relative="1" as="geometry"/>
        </mxCell>
        <mxCell id="5Jlnsfs4VGk-h_8qWeXb-200" value="&lt;b&gt;distinct iso&lt;/b&gt;" style="rounded=0;whiteSpace=wrap;html=1;fontFamily=Times New Roman;fontSize=10;" parent="WIyWlLk6GJQsqaUBKTNV-1" vertex="1">
          <mxGeometry x="660" y="1265" width="90" height="20" as="geometry"/>
        </mxCell>
        <mxCell id="5Jlnsfs4VGk-h_8qWeXb-208" style="edgeStyle=orthogonalEdgeStyle;rounded=0;orthogonalLoop=1;jettySize=auto;html=1;exitX=0.875;exitY=0.5;exitDx=0;exitDy=0;strokeWidth=1;fontFamily=Times New Roman;fontSize=10;exitPerimeter=0;" parent="WIyWlLk6GJQsqaUBKTNV-1" source="5Jlnsfs4VGk-h_8qWeXb-229" target="5Jlnsfs4VGk-h_8qWeXb-206" edge="1">
          <mxGeometry relative="1" as="geometry">
            <mxPoint x="859.8095238095236" y="1320.2380952380952" as="sourcePoint"/>
          </mxGeometry>
        </mxCell>
        <mxCell id="5Jlnsfs4VGk-h_8qWeXb-212" style="edgeStyle=orthogonalEdgeStyle;rounded=0;orthogonalLoop=1;jettySize=auto;html=1;exitX=1;exitY=0.5;exitDx=0;exitDy=0;entryX=0;entryY=0.5;entryDx=0;entryDy=0;strokeWidth=1;fontFamily=Times New Roman;fontSize=10;" parent="WIyWlLk6GJQsqaUBKTNV-1" source="5Jlnsfs4VGk-h_8qWeXb-206" target="5Jlnsfs4VGk-h_8qWeXb-210" edge="1">
          <mxGeometry relative="1" as="geometry">
            <Array as="points">
              <mxPoint x="975" y="1320"/>
            </Array>
          </mxGeometry>
        </mxCell>
        <mxCell id="5Jlnsfs4VGk-h_8qWeXb-213" style="edgeStyle=orthogonalEdgeStyle;rounded=0;orthogonalLoop=1;jettySize=auto;html=1;exitX=1;exitY=0.5;exitDx=0;exitDy=0;entryX=0;entryY=0.5;entryDx=0;entryDy=0;strokeWidth=1;fontFamily=Times New Roman;fontSize=10;" parent="WIyWlLk6GJQsqaUBKTNV-1" source="5Jlnsfs4VGk-h_8qWeXb-206" target="5Jlnsfs4VGk-h_8qWeXb-209" edge="1">
          <mxGeometry relative="1" as="geometry">
            <Array as="points">
              <mxPoint x="980" y="1320"/>
              <mxPoint x="980" y="1283"/>
            </Array>
          </mxGeometry>
        </mxCell>
        <mxCell id="5Jlnsfs4VGk-h_8qWeXb-206" value="&lt;span&gt;visualise 3.4 +&amp;nbsp;acled data in JSON&lt;/span&gt;" style="rounded=0;whiteSpace=wrap;html=1;fontFamily=Times New Roman;fontSize=10;fontStyle=1" parent="WIyWlLk6GJQsqaUBKTNV-1" vertex="1">
          <mxGeometry x="885.35" y="1306.25" width="90" height="22.5" as="geometry"/>
        </mxCell>
        <mxCell id="5Jlnsfs4VGk-h_8qWeXb-209" value="&lt;b&gt;&lt;font size=&quot;1&quot;&gt;return:&amp;nbsp;acled map&lt;/font&gt;; &lt;br&gt;3.4 df; k plot;&amp;nbsp;&lt;br&gt;acled data&lt;br style=&quot;font-size: 10px&quot;&gt;&lt;/b&gt;" style="shape=parallelogram;perimeter=parallelogramPerimeter;whiteSpace=wrap;html=1;fontFamily=Times New Roman;fontSize=10;fillColor=#e1d5e7;strokeColor=#9673a6;" parent="WIyWlLk6GJQsqaUBKTNV-1" vertex="1">
          <mxGeometry x="995" y="1265" width="125" height="35" as="geometry"/>
        </mxCell>
        <mxCell id="5Jlnsfs4VGk-h_8qWeXb-210" value="&lt;b style=&quot;font-size: 10px&quot;&gt;save html map&lt;br style=&quot;font-size: 10px&quot;&gt;&lt;/b&gt;" style="shape=parallelogram;perimeter=parallelogramPerimeter;whiteSpace=wrap;html=1;fontFamily=Times New Roman;fontSize=10;fillColor=#dae8fc;strokeColor=#6c8ebf;" parent="WIyWlLk6GJQsqaUBKTNV-1" vertex="1">
          <mxGeometry x="1015" y="1310" width="95" height="20" as="geometry"/>
        </mxCell>
        <mxCell id="5Jlnsfs4VGk-h_8qWeXb-216" value="" style="rounded=0;whiteSpace=wrap;html=1;fontFamily=Times New Roman;fontSize=12;fillColor=#f5f5f5;strokeColor=#666666;fontColor=#333333;" parent="WIyWlLk6GJQsqaUBKTNV-1" vertex="1">
          <mxGeometry x="760" y="870" width="400" height="90" as="geometry"/>
        </mxCell>
        <mxCell id="5Jlnsfs4VGk-h_8qWeXb-217" value="Output&lt;br&gt;in R" style="shape=parallelogram;perimeter=parallelogramPerimeter;whiteSpace=wrap;html=1;fontFamily=Times New Roman;fontSize=12;fillColor=#e1d5e7;strokeColor=#9673a6;" parent="WIyWlLk6GJQsqaUBKTNV-1" vertex="1">
          <mxGeometry x="840" y="880" width="70" height="30" as="geometry"/>
        </mxCell>
        <mxCell id="5Jlnsfs4VGk-h_8qWeXb-218" value="Input" style="shape=parallelogram;perimeter=parallelogramPerimeter;whiteSpace=wrap;html=1;fontFamily=Times New Roman;fontSize=12;fillColor=#fff2cc;strokeColor=#d6b656;" parent="WIyWlLk6GJQsqaUBKTNV-1" vertex="1">
          <mxGeometry x="920" y="880" width="70" height="30" as="geometry"/>
        </mxCell>
        <mxCell id="5Jlnsfs4VGk-h_8qWeXb-219" value="Process" style="rounded=0;whiteSpace=wrap;html=1;fontFamily=Times New Roman;fontSize=12;" parent="WIyWlLk6GJQsqaUBKTNV-1" vertex="1">
          <mxGeometry x="770" y="920" width="140" height="30" as="geometry"/>
        </mxCell>
        <mxCell id="5Jlnsfs4VGk-h_8qWeXb-220" value="Sub-process group" style="rounded=0;whiteSpace=wrap;html=1;fontFamily=Times New Roman;fontSize=12;fillColor=#ffe6cc;strokeColor=#d79b00;" parent="WIyWlLk6GJQsqaUBKTNV-1" vertex="1">
          <mxGeometry x="1000" y="920" width="70" height="30" as="geometry"/>
        </mxCell>
        <mxCell id="5Jlnsfs4VGk-h_8qWeXb-221" value="Report" style="shape=document;whiteSpace=wrap;html=1;boundedLbl=1;fontFamily=Times New Roman;fontSize=12;align=center;" parent="WIyWlLk6GJQsqaUBKTNV-1" vertex="1">
          <mxGeometry x="1080" y="920" width="70" height="30" as="geometry"/>
        </mxCell>
        <mxCell id="5Jlnsfs4VGk-h_8qWeXb-222" value="&lt;span style=&quot;font-weight: normal&quot;&gt;START&lt;/span&gt;" style="rounded=1;whiteSpace=wrap;html=1;fontFamily=Times New Roman;fontSize=12;fillColor=#d5e8d4;strokeColor=#82b366;fontStyle=1" parent="WIyWlLk6GJQsqaUBKTNV-1" vertex="1">
          <mxGeometry x="1000" y="880" width="70" height="30" as="geometry"/>
        </mxCell>
        <mxCell id="5Jlnsfs4VGk-h_8qWeXb-223" value="&lt;span style=&quot;font-weight: normal&quot;&gt;END&lt;/span&gt;" style="rounded=1;whiteSpace=wrap;html=1;fontFamily=Times New Roman;fontSize=12;fillColor=#f8cecc;strokeColor=#b85450;fontStyle=1" parent="WIyWlLk6GJQsqaUBKTNV-1" vertex="1">
          <mxGeometry x="1080" y="880" width="70" height="30" as="geometry"/>
        </mxCell>
        <mxCell id="5Jlnsfs4VGk-h_8qWeXb-224" value="&lt;b style=&quot;font-size: 14px&quot;&gt;&lt;font style=&quot;font-size: 14px&quot;&gt;Legend&lt;/font&gt;&lt;/b&gt;" style="text;html=1;align=left;verticalAlign=middle;resizable=0;points=[];autosize=1;fontSize=14;fontFamily=Times New Roman;" parent="WIyWlLk6GJQsqaUBKTNV-1" vertex="1">
          <mxGeometry x="760" y="850" width="70" height="20" as="geometry"/>
        </mxCell>
        <mxCell id="5Jlnsfs4VGk-h_8qWeXb-225" value="Process group" style="rounded=0;whiteSpace=wrap;html=1;fontFamily=Times New Roman;fontSize=12;fillColor=#f5f5f5;strokeColor=#666666;fontColor=#333333;" parent="WIyWlLk6GJQsqaUBKTNV-1" vertex="1">
          <mxGeometry x="920" y="920" width="70" height="30" as="geometry"/>
        </mxCell>
        <mxCell id="5Jlnsfs4VGk-h_8qWeXb-226" value="Output&amp;nbsp;&lt;br&gt;in csv" style="shape=parallelogram;perimeter=parallelogramPerimeter;whiteSpace=wrap;html=1;fontFamily=Times New Roman;fontSize=12;fillColor=#dae8fc;strokeColor=#6c8ebf;" parent="WIyWlLk6GJQsqaUBKTNV-1" vertex="1">
          <mxGeometry x="770" y="880" width="70" height="30" as="geometry"/>
        </mxCell>
        <mxCell id="5Jlnsfs4VGk-h_8qWeXb-227" value="&lt;b&gt;END&lt;/b&gt;" style="rounded=1;whiteSpace=wrap;html=1;fontFamily=Times New Roman;fontSize=12;fillColor=#f8cecc;strokeColor=#b85450;" parent="WIyWlLk6GJQsqaUBKTNV-1" vertex="1">
          <mxGeometry x="40.00000000000003" y="1400" width="120" height="40" as="geometry"/>
        </mxCell>
        <mxCell id="5Jlnsfs4VGk-h_8qWeXb-229" value="download &lt;br&gt;JSON" style="ellipse;shape=cloud;whiteSpace=wrap;html=1;fontFamily=Times New Roman;fontSize=10;fontStyle=1" parent="WIyWlLk6GJQsqaUBKTNV-1" vertex="1">
          <mxGeometry x="775.35" y="1295" width="80" height="45" as="geometry"/>
        </mxCell>
      </root>
    </mxGraphModel>
  </diagram>
</mxfile>
